<svg width="122" height="122" viewBox="0 0 122 122" fill="none" xmlns="http://www.w3.org/2000/svg">
<rect width="122" height="122" rx="25" fill="white"/>
<path d="M60.9998 103C37.8412 103 19 84.1588 19 61.0002C19 37.8408 37.8412 19 60.9998 19C84.1588 19 103 37.8408 103 61.0002C103 84.1588 84.1585 103 60.9998 103ZM60.9998 21.4374C39.185 21.4374 21.4372 39.185 21.4372 61.0005C21.4372 82.8152 39.1848 100.563 60.9998 100.563C82.815 100.563 100.563 82.8155 100.563 61.0005C100.563 39.185 82.815 21.4374 60.9998 21.4374Z" fill="#EEA08F"/>
<path d="M60.9998 88.2264C45.9874 88.2264 33.7738 76.0132 33.7738 61.0004C33.7738 45.988 45.9874 33.7744 60.9998 33.7744C76.0126 33.7744 88.2262 45.988 88.2262 61.0004C88.2262 76.0132 76.0126 88.2264 60.9998 88.2264ZM60.9998 36.2114C47.331 36.2114 36.2106 47.3313 36.2106 61.0002C36.2106 74.669 47.331 85.7901 60.9998 85.7901C74.6686 85.7901 85.7894 74.6692 85.7894 61.0004C85.7894 47.3316 74.6686 36.2114 60.9998 36.2114Z" fill="#EEA08F"/>
<path d="M41.404 30.7766L41.6234 31.076C42.255 31.9387 42.3951 32.6831 42.0095 33.3884C42.9184 33.1464 43.6589 33.5796 44.308 34.4663L44.808 35.1494C45.7556 36.4435 45.5813 37.6384 44.2634 38.6036L42.1902 40.1212L36.0497 31.7337L38.0387 30.2775C39.4049 29.2773 40.4567 29.4826 41.404 30.7766ZM38.2449 31.9669L39.8679 34.1836L40.3832 33.8063C40.8744 33.4466 41.0159 33.0116 40.5247 32.3407L40.1828 31.8735C39.744 31.2746 39.3475 31.1599 38.8799 31.502L38.2449 31.9669ZM40.745 35.382L42.6311 37.9584L43.3861 37.4056C43.8295 37.0811 43.9198 36.702 43.4637 36.079L42.9288 35.348C42.3585 34.5692 41.9316 34.5137 41.3324 34.9525L40.745 35.382Z" fill="#0081A7"/>
<path d="M45.637 28.5823C45.042 27.0293 45.5196 25.8281 47.0173 25.2541C48.5151 24.6801 49.673 25.2539 50.2685 26.8069L52.2031 31.8542C52.7986 33.4072 52.3208 34.6084 50.8233 35.1824C49.3255 35.7564 48.1674 35.1826 47.5721 33.6296L45.637 28.5823ZM49.1346 33.1419C49.4002 33.8351 49.8064 33.9817 50.2916 33.7956C50.7771 33.6095 50.9809 33.229 50.7153 32.5357L48.706 27.2944C48.4404 26.6012 48.0342 26.4546 47.5488 26.6407C47.0635 26.8268 46.8597 27.2073 47.1253 27.9006L49.1346 33.1419Z" fill="#0081A7"/>
<path d="M60.1681 22.6982L58.9392 27.8852L61.2567 33.038L59.5414 33.1989L57.8266 29.2276L56.8651 33.4497L55.342 33.5926L56.6617 28.0988L54.4899 23.2309L56.1756 23.0727L57.7605 26.7726L58.6597 22.8397L60.1681 22.6982Z" fill="#0081A7"/>
<path d="M65.1305 23.0015L66.7513 23.207L65.4426 33.5206L63.8219 33.3149L65.1305 23.0015Z" fill="#0081A7"/>
<path d="M72.2769 27.4398L69.7054 34.5164L68.3235 34.0143L71.874 24.2437L73.8001 24.9436L73.252 31.3651L75.3774 25.5169L76.7452 26.0139L73.1947 35.7846L71.6174 35.2115L72.2769 27.4398Z" fill="#0081A7"/>
<path d="M81.0179 33.8285L82.8814 35.1545L80.9698 37.8411C80.0054 39.1967 78.7767 39.4889 77.4695 38.5592C76.1627 37.6292 76.0357 36.3723 77.0002 35.0169L80.1344 30.6115C81.0988 29.2562 82.3275 28.9638 83.6347 29.8938C84.9418 30.8235 85.0685 32.0804 84.104 33.436L83.5187 34.2589L82.26 33.3634L82.9056 32.4558C83.3363 31.8506 83.2337 31.4313 82.8099 31.1301C82.3864 30.8286 81.9567 30.8693 81.526 31.4743L78.2714 36.0489C77.8409 36.6541 77.9521 37.0612 78.3756 37.3626C78.7991 37.6641 79.2203 37.6356 79.6512 37.0304L80.762 35.4691L80.1568 35.0387L81.0179 33.8285Z" fill="#0081A7"/>
<path d="M45.7799 87.2575L45.5773 87.5686C44.9936 88.4646 44.3471 88.8588 43.5507 88.7478C44.0986 89.5123 43.955 90.3584 43.3551 91.2791L42.893 91.9883C42.0176 93.3324 40.8381 93.5922 39.4692 92.7006L37.3163 91.2983L42.9903 82.5869L45.0561 83.9325C46.4752 84.8568 46.6553 85.9134 45.7799 87.2575ZM41.2388 88.2698L39.496 90.9453L40.2799 91.456C40.7404 91.7558 41.1273 91.7063 41.5485 91.0593L42.043 90.3001C42.5698 89.4912 42.4709 89.0721 41.8486 88.6669L41.2388 88.2698ZM43.5488 84.7231L42.0492 87.0254L42.5842 87.374C43.0946 87.7064 43.5518 87.6849 44.0054 86.9881L44.3214 86.5027C44.7269 85.8806 44.6934 85.4689 44.2081 85.1529L43.5488 84.7231Z" fill="#0081A7"/>
<path d="M48.4248 88.7104C49.0125 87.1542 50.1679 86.5744 51.6684 87.1408C53.1691 87.7074 53.6532 88.906 53.0658 90.4622L51.1563 95.5197C50.5689 97.076 49.4135 97.6557 47.9128 97.0894C46.4125 96.5228 45.9282 95.3242 46.5158 93.7679L48.4248 88.7104ZM48.0076 94.442C47.7452 95.1367 47.9514 95.516 48.4375 95.6996C48.9239 95.8831 49.3292 95.7345 49.5913 95.0398L51.5741 89.7879C51.8364 89.0932 51.6302 88.7139 51.1441 88.5303C50.6577 88.3468 50.2525 88.4954 49.9903 89.1901L48.0076 94.442Z" fill="#0081A7"/>
<path d="M61.6824 89.3415L59.4412 94.1781L60.6821 99.6903L58.9694 99.5049L58.0831 95.271L56.2969 99.2157L54.7758 99.0511L57.1674 93.9321L56.0125 88.728L57.6959 88.9102L58.5094 92.8523L60.1766 89.1786L61.6824 89.3415Z" fill="#0081A7"/>
<path d="M63.891 88.9929L65.5034 88.7319L67.1653 98.9938L65.5526 99.255L63.891 88.9929Z" fill="#0081A7"/>
<path d="M70.5441 90.3392L73.2196 97.3764L71.8453 97.8989L68.1515 88.1828L70.0667 87.4546L73.8463 92.6742L71.6354 86.8584L72.9959 86.3413L76.6897 96.0574L75.1212 96.6538L70.5441 90.3392Z" fill="#0081A7"/>
<path d="M79.9083 87.5948L81.8129 86.3292L83.6375 89.0745C84.558 90.4597 84.3916 91.7112 83.0557 92.5989C81.7202 93.4866 80.5015 93.1554 79.5812 91.7702L76.5896 87.2686C75.6693 85.8835 75.8358 84.6317 77.1715 83.744C78.5069 82.8565 79.7257 83.1876 80.6462 84.5727L81.2049 85.4137L79.9189 86.2686L79.3026 85.3411C78.8916 84.7228 78.4632 84.6687 78.0303 84.9562C77.5977 85.244 77.4817 85.6597 77.8925 86.2781L80.9992 90.9528C81.41 91.5712 81.83 91.6128 82.263 91.3252C82.696 91.0374 82.8199 90.634 82.4091 90.0158L81.3487 88.4205L80.7305 88.8313L79.9083 87.5948Z" fill="#0081A7"/>
<path d="M29.3117 60.8899C29.3117 62.0411 28.378 62.9745 27.227 62.9745C26.0758 62.9745 25.1421 62.0413 25.1421 60.8899C25.1421 59.7389 26.0758 58.8052 27.227 58.8052C28.378 58.8052 29.3117 59.7391 29.3117 60.8899Z" fill="#EEA08F"/>
<path d="M95.0656 60.8899C95.0656 62.0411 94.1319 62.9745 92.9804 62.9745C91.8297 62.9745 90.8958 62.0413 90.8958 60.8899C90.8958 59.7389 91.8294 58.8052 92.9804 58.8052C94.1319 58.8052 95.0656 59.7391 95.0656 60.8899Z" fill="#EEA08F"/>
<path d="M40.3524 58.5811C42.0413 61.2495 45.63 66.5775 45.63 66.5775L46.2999 67.655L48.2953 67.6513C49.637 67.5782 51.5231 67.3514 53.5461 66.7201C55.6239 66.0726 57.3958 65.1038 58.5528 64.3768L59.9867 63.3871C59.6457 61.94 59.4192 61.185 59.8545 60.5523C61.726 57.8268 61.2471 54.2943 60.2861 50.6469C59.6451 48.2134 58.3549 47.479 57.5671 47.2596C56.9885 47.2157 56.3812 47.8759 56.1304 48.2915C55.7418 48.9328 56.1909 49.79 56.5002 50.4402C56.6683 50.3247 57.1112 50.0842 57.4956 50.4375C57.4956 50.4375 56.9152 50.2884 56.6033 50.6643C56.6063 50.6714 56.6103 50.679 56.6133 50.6862C56.7769 51.0639 56.9096 51.4618 57.0358 51.8608C57.3396 51.7575 58.0026 51.5942 58.3822 51.9724C58.3822 51.9724 57.7127 51.8233 57.1484 52.2182C57.2023 52.3892 57.2561 52.5596 57.3121 52.7279C57.4205 53.0536 57.5181 53.386 57.5856 53.7226C57.6334 53.8939 57.7673 54.2386 58.0828 54.3207C58.0828 54.3207 57.8507 54.2985 57.6565 54.2109C57.6773 54.4402 57.6806 54.6704 57.6551 54.9027C57.6276 55.1566 57.2407 55.065 57.2686 54.8133C57.2941 54.5768 57.2876 54.3394 57.2589 54.1027C57.0386 54.3158 56.7892 54.3112 56.7892 54.3112C57.0446 54.1967 57.154 53.9177 57.1986 53.7423C57.0664 53.1033 56.8044 52.4741 56.6008 51.8807C56.5823 51.8254 56.5619 51.7709 56.5418 51.7165C55.7103 51.8973 55.1971 51.2616 55.1971 51.2616C55.6035 51.557 56.1928 51.4807 56.4355 51.432C56.2434 50.9398 56.0256 50.4509 55.8488 49.9536C55.2401 49.7338 54.434 49.9805 54.434 49.9805C54.9327 49.6557 55.4988 49.6427 55.7485 49.657C55.7147 49.5498 55.6837 49.4423 55.6555 49.3341C55.613 49.1688 55.6035 48.9906 55.622 48.8084C55.4708 48.5766 55.2667 48.4564 55.2667 48.4564C55.4264 48.4369 55.5712 48.503 55.6629 48.559C55.7318 48.2606 55.8696 47.9616 56.0568 47.6995C56.0067 47.2432 55.613 46.847 55.613 46.847C55.9618 46.9329 56.1618 47.2559 56.2547 47.4561C56.4341 47.2621 56.6424 47.1015 56.8678 46.9949C56.3745 44.9088 54.0165 44.9488 51.0472 45.5855C47.9976 46.2394 43.0362 48.6887 40.5939 50.606C38.1812 52.5009 38.6641 55.9127 40.3524 58.5811ZM57.4522 47.5666C58.5052 47.4233 59.3413 49.0685 59.3413 49.0685C58.4499 47.9136 57.4522 47.5666 57.4522 47.5666ZM44.8907 48.4164C48.0279 46.6992 49.8777 46.0023 52.2423 45.6243C55.5335 45.0982 56.353 46.7256 56.353 46.7256C55.7221 45.9056 53.3998 45.6266 50.932 46.2325C47.6901 47.0284 44.8907 48.4164 44.8907 48.4164Z" fill="#0081A7"/>
<path d="M60.7587 64.8299C61.1551 64.7668 61.5051 64.8944 61.5858 65.1524C61.6662 65.4101 61.4503 65.7137 61.0883 65.8875L60.7587 64.8299Z" fill="#0081A7"/>
<path d="M46.3534 67.8468L46.5503 68.4777L48.412 68.4745C49.7985 68.3986 51.7487 68.164 53.8396 67.5121C55.986 66.8426 57.8187 65.8408 59.0136 65.0897L60.2515 64.2355L60.0462 63.5771C60.0462 63.5771 57.3097 65.7555 53.6061 66.9099C49.7303 68.1187 46.3534 67.8468 46.3534 67.8468ZM59.9106 63.9953L60.0169 63.92C60.0391 63.9045 60.0694 63.9103 60.0853 63.9341C60.1008 63.9574 60.0957 63.9889 60.0735 64.0046L59.9672 64.0809C59.9628 64.0836 59.9586 64.086 59.9542 64.0871C59.9341 64.0933 59.9115 64.0855 59.899 64.067C59.8833 64.043 59.8886 64.0108 59.9106 63.9953ZM59.4907 64.2942L59.7009 64.1447C59.7228 64.1292 59.7531 64.1354 59.7691 64.1588C59.7843 64.1821 59.7792 64.214 59.7573 64.23L59.5476 64.3791C59.543 64.3828 59.5391 64.3846 59.5344 64.3862C59.5146 64.392 59.4919 64.3842 59.4794 64.3652C59.4637 64.3421 59.4692 64.3097 59.4907 64.2942ZM59.0712 64.5927L59.2813 64.4438C59.303 64.4278 59.3342 64.4346 59.349 64.4577C59.3652 64.4815 59.3601 64.5125 59.3382 64.5289L59.1283 64.678C59.1236 64.6807 59.1197 64.6833 59.1149 64.6847C59.0948 64.6907 59.0721 64.6831 59.0596 64.6641C59.0446 64.6405 59.0492 64.6086 59.0712 64.5927ZM58.6488 64.8826C58.7038 64.8474 58.7577 64.8132 58.8079 64.7806L58.8615 64.7425C58.8832 64.727 58.9144 64.733 58.9299 64.7566C58.9454 64.7804 58.9403 64.8118 58.9184 64.8273L58.8634 64.8666C58.8109 64.9008 58.7568 64.935 58.7015 64.9704C58.6981 64.9725 58.6946 64.9743 58.6904 64.9755C58.6696 64.982 58.6463 64.9732 58.634 64.9524C58.6195 64.9281 58.6257 64.8971 58.6488 64.8826ZM58.2121 65.153C58.2873 65.1075 58.3599 65.0629 58.4315 65.0192C58.4542 65.0051 58.484 65.0129 58.4988 65.0374C58.5129 65.0619 58.5057 65.0927 58.4831 65.107C58.4112 65.1514 58.3381 65.1965 58.2632 65.2413C58.26 65.2439 58.2563 65.2453 58.2528 65.2464C58.2318 65.2527 58.2082 65.2439 58.196 65.2224C58.1816 65.1974 58.189 65.1667 58.2121 65.153ZM57.7702 65.4126C57.8453 65.3699 57.9197 65.3266 57.9923 65.2843C58.0154 65.2707 58.0455 65.2792 58.0591 65.3042C58.0728 65.3289 58.0651 65.3597 58.0422 65.3733C57.9697 65.4161 57.8952 65.4593 57.8189 65.503C57.8159 65.5044 57.8136 65.5063 57.8099 65.5069C57.7886 65.5134 57.7639 65.5037 57.7526 65.482C57.7389 65.4575 57.7466 65.4267 57.7702 65.4126ZM57.3027 65.7314C57.29 65.7064 57.2986 65.6757 57.3221 65.6625C57.3984 65.6211 57.4731 65.58 57.5466 65.5391C57.5702 65.5257 57.6005 65.5354 57.6139 65.5601C57.6271 65.5853 57.6185 65.6161 57.5949 65.6295C57.5214 65.6709 57.4458 65.712 57.3695 65.7536C57.3668 65.7552 57.3642 65.7564 57.361 65.7573C57.3395 65.764 57.3147 65.7538 57.3027 65.7314ZM56.8487 65.9702C56.836 65.945 56.845 65.9145 56.8695 65.902C56.9463 65.8625 57.0219 65.823 57.0965 65.7837C57.1206 65.7712 57.1497 65.7813 57.1624 65.8063C57.1756 65.832 57.167 65.8625 57.1428 65.8747C57.0679 65.9147 56.9918 65.9545 56.9144 65.9938C56.9123 65.9952 56.9097 65.9961 56.9074 65.997C56.885 66.0042 56.8598 65.9933 56.8487 65.9702ZM56.3889 66.1988C56.3767 66.1734 56.3864 66.1427 56.4109 66.1311C56.4888 66.0932 56.5648 66.056 56.6409 66.0183C56.6649 66.0063 56.6938 66.0167 56.7065 66.0423C56.7188 66.0675 56.7091 66.0985 56.685 66.1105C56.6088 66.1487 56.5325 66.1864 56.4543 66.224C56.4523 66.2252 56.4502 66.2261 56.4476 66.2263C56.4252 66.2333 56.3998 66.222 56.3889 66.1988ZM55.9236 66.4157C55.9122 66.3898 55.9229 66.3597 55.9476 66.3486C56.0257 66.3133 56.103 66.2772 56.1797 66.2414C56.204 66.2298 56.2338 66.2416 56.2454 66.2675C56.2572 66.2929 56.247 66.3234 56.2225 66.3348C56.1455 66.3711 56.0676 66.4071 55.989 66.4425C55.9869 66.4432 55.9851 66.4441 55.9834 66.4446C55.9601 66.4517 55.9344 66.4399 55.9236 66.4157ZM55.4538 66.6214C55.4425 66.5951 55.4543 66.5652 55.4786 66.5544C55.5576 66.5213 55.6362 66.4871 55.7139 66.4531C55.7391 66.4413 55.7675 66.4547 55.7784 66.4804C55.7897 66.5068 55.7784 66.5363 55.7541 66.5477C55.6758 66.5819 55.5972 66.6156 55.5176 66.6496C55.5165 66.6499 55.5151 66.6503 55.5137 66.6508C55.4901 66.6586 55.4638 66.6452 55.4538 66.6214ZM54.979 66.8142C54.9688 66.7876 54.9804 66.7583 55.0051 66.7486C55.0851 66.7169 55.1642 66.6852 55.243 66.6531C55.2675 66.6429 55.2962 66.6559 55.3066 66.6822C55.317 66.7086 55.3054 66.7384 55.2807 66.7481C55.2023 66.7805 55.1226 66.8128 55.0421 66.8443C55.0412 66.8445 55.0403 66.845 55.0391 66.8454C55.0148 66.8528 54.9885 66.8392 54.979 66.8142ZM54.4989 66.995C54.4889 66.9682 54.5017 66.9388 54.5275 66.93C54.6078 66.9004 54.6873 66.8708 54.767 66.841C54.7925 66.8304 54.8207 66.8454 54.8304 66.8718C54.8408 66.8984 54.8281 66.9277 54.8026 66.9372C54.7224 66.9675 54.6424 66.9971 54.5615 67.0264C54.5611 67.0267 54.5604 67.0271 54.5592 67.0276C54.5352 67.0345 54.5077 67.0204 54.4989 66.995ZM54.0137 67.1617C54.0049 67.1344 54.0183 67.1062 54.0439 67.0972C54.1255 67.0703 54.206 67.0431 54.2864 67.0151C54.3135 67.0049 54.3396 67.0209 54.3488 67.0479C54.3583 67.0747 54.3449 67.1032 54.3195 67.112C54.239 67.1404 54.1581 67.1679 54.0765 67.1949H54.0754C54.0497 67.203 54.0227 67.1878 54.0137 67.1617ZM53.5247 67.3145C53.5166 67.2872 53.5326 67.2638 53.5569 67.2511C53.6214 67.2315 53.6865 67.2118 53.752 67.1919L53.801 67.176C53.8269 67.1681 53.8548 67.1834 53.8632 67.2102C53.8719 67.2375 53.8583 67.2659 53.832 67.274L53.7825 67.2895C53.7168 67.3098 53.6516 67.3299 53.5862 67.3494C53.5603 67.3568 53.5328 67.3415 53.5247 67.3145ZM53.0314 67.4536C53.024 67.4268 53.0353 67.4018 53.0649 67.3912C53.1468 67.369 53.2286 67.3461 53.3116 67.3228C53.3368 67.3154 53.3643 67.3316 53.3726 67.3586C53.3798 67.3859 53.3661 67.4134 53.3405 67.4213H53.3398C53.2568 67.4451 53.1743 67.4684 53.092 67.4906C53.0663 67.4973 53.0383 67.4809 53.0314 67.4536ZM52.5344 67.5801C52.5272 67.5528 52.5439 67.5251 52.5691 67.5188C52.6516 67.4989 52.7344 67.4781 52.8169 67.4566C52.843 67.4499 52.8701 67.4668 52.8777 67.4945C52.8846 67.5207 52.8703 67.5477 52.8449 67.5556C52.8449 67.5556 52.8439 67.5556 52.8435 67.556C52.76 67.5778 52.6768 67.5986 52.5938 67.6184C52.5681 67.6249 52.5413 67.6078 52.5344 67.5801ZM52.0344 67.6945C52.0279 67.6661 52.045 67.6393 52.0707 67.6339C52.1534 67.6159 52.2364 67.5974 52.3199 67.5778C52.3465 67.5715 52.373 67.5889 52.38 67.6171C52.3862 67.6432 52.3719 67.6691 52.3478 67.6765C52.346 67.6767 52.3453 67.6772 52.3437 67.6776C52.2598 67.697 52.1765 67.7158 52.0931 67.7333C52.0667 67.7391 52.0409 67.7218 52.0344 67.6945ZM51.5316 67.7953C51.526 67.768 51.5431 67.741 51.5697 67.7361C51.6523 67.7202 51.7359 67.7035 51.8203 67.6864C51.8464 67.6811 51.8733 67.6989 51.8786 67.7269C51.8846 67.753 51.87 67.7784 51.8464 67.7856C51.8446 67.7858 51.8437 67.7867 51.8418 67.7867C51.7574 67.8038 51.6731 67.8205 51.5891 67.8364C51.5633 67.8418 51.5371 67.8233 51.5316 67.7953ZM51.0265 67.8845C51.0214 67.8566 51.0385 67.83 51.0653 67.8263C51.149 67.8122 51.2329 67.7978 51.3178 67.7826C51.3441 67.778 51.3702 67.7969 51.3755 67.8247C51.3804 67.8503 51.3661 67.8753 51.3425 67.8822C51.3406 67.8827 51.3388 67.8829 51.3372 67.8838C51.2519 67.8986 51.1673 67.9132 51.0833 67.9275C51.057 67.9315 51.0316 67.9125 51.0265 67.8845ZM50.5191 67.9615C50.5144 67.9335 50.5322 67.9083 50.5591 67.9044C50.6427 67.8922 50.7271 67.8794 50.8131 67.8665C50.8397 67.8628 50.8651 67.8818 50.8691 67.9097C50.8737 67.9352 50.8596 67.9587 50.8365 67.9659C50.8341 67.9666 50.8318 67.9675 50.8298 67.9675C50.744 67.9807 50.6592 67.9932 50.575 68.0052C50.5482 68.0089 50.523 67.9899 50.5191 67.9615ZM50.0093 68.0265C50.0056 67.998 50.0244 67.9731 50.0514 67.9701C50.1351 67.9599 50.2199 67.9499 50.3055 67.9382C50.3323 67.9349 50.3572 67.9548 50.3616 67.9828C50.3653 68.0075 50.3503 68.0311 50.3286 68.0376C50.3258 68.0387 50.3233 68.0392 50.3207 68.0394C50.2345 68.0503 50.1497 68.0611 50.0655 68.0713C50.0378 68.0748 50.0128 68.0544 50.0093 68.0265ZM49.4989 68.0789C49.4954 68.0505 49.5139 68.026 49.5417 68.0237C49.6251 68.0158 49.7102 68.0073 49.7964 67.998C49.8239 67.9953 49.8482 68.0158 49.8514 68.0436C49.8551 68.0688 49.8406 68.091 49.8182 68.0979C49.8152 68.0988 49.8126 68.0991 49.8096 68.0997C49.7231 68.1092 49.6376 68.1178 49.5535 68.1254C49.5262 68.1279 49.5017 68.1076 49.4989 68.0789ZM48.9862 68.1203C48.9836 68.0921 49.0028 68.0676 49.0303 68.0658C49.1138 68.06 49.1991 68.0533 49.2858 68.0463C49.3128 68.044 49.3373 68.0651 49.3394 68.093C49.3422 68.1178 49.3278 68.1393 49.3064 68.146C49.3027 68.1471 49.3001 68.1478 49.2964 68.1478C49.2093 68.1555 49.123 68.1619 49.0393 68.1677C49.0132 68.1693 48.989 68.1483 48.9862 68.1203ZM48.4728 68.149C48.4709 68.121 48.4917 68.0974 48.5178 68.0954C48.6017 68.0919 48.6866 68.0873 48.7742 68.0824C48.8012 68.0806 48.8251 68.1023 48.8271 68.1303C48.8292 68.1538 48.8147 68.1753 48.7936 68.182C48.7899 68.1832 48.7864 68.1837 48.7823 68.1844C48.6947 68.189 48.6087 68.1936 48.525 68.1975C48.4984 68.1989 48.4744 68.177 48.4728 68.149ZM47.9582 68.1453C47.9572 68.1166 47.9794 68.0942 48.0063 68.0942L48.2633 68.0981C48.2908 68.0981 48.313 68.1215 48.3137 68.1497C48.3137 68.1726 48.2996 68.1915 48.2802 68.1978C48.2753 68.1998 48.2707 68.2003 48.2656 68.2003L48.0079 68.1966C47.9806 68.1961 47.9586 68.1728 47.9582 68.1453ZM47.4429 68.1381C47.4424 68.1097 47.4642 68.0875 47.491 68.0875L47.7483 68.0907C47.7755 68.0914 47.7977 68.1143 47.7984 68.1427C47.7984 68.1654 47.7843 68.1848 47.7644 68.1911C47.7603 68.1924 47.7554 68.1934 47.7503 68.1934L47.4931 68.1899C47.4658 68.1892 47.4434 68.1666 47.4429 68.1381ZM46.9278 68.1312C46.9274 68.1037 46.9496 68.0808 46.9766 68.0808L47.2335 68.0843C47.2607 68.0849 47.2829 68.1081 47.2834 68.1365C47.2841 68.1592 47.2695 68.1786 47.2494 68.1848C47.2455 68.1862 47.2404 68.1867 47.2353 68.1867L46.978 68.1832C46.9505 68.1825 46.9283 68.1594 46.9278 68.1312ZM46.5399 68.1266C46.5395 68.0981 46.5617 68.0757 46.5878 68.0759L46.7186 68.0776C46.7457 68.0778 46.7681 68.1009 46.7683 68.1293C46.7688 68.1525 46.7542 68.1714 46.7348 68.1776C46.7302 68.179 46.7251 68.18 46.7203 68.18L46.5894 68.1781C46.5628 68.1774 46.5404 68.1545 46.5399 68.1266Z" fill="#0081A7"/>
<path d="M53.8728 67.7656C57.5764 66.6107 60.3303 64.4888 60.3303 64.4888L60.792 65.9699L52.4354 68.5754C51.9192 68.736 51.6312 69.2851 51.7923 69.8017L52.655 72.5684C52.8155 73.0848 53.3652 73.3726 53.8814 73.2117L62.2377 70.6064L62.3452 70.9516L48.6528 75.2208L46.6375 68.7578C46.6375 68.7578 49.9973 68.9744 53.8728 67.7656Z" fill="#0081A7"/>
<path d="M52.4969 69.8973L53.1684 72.0511C53.2935 72.4531 53.7209 72.6776 54.1229 72.5523L62.3278 69.9937C62.7301 69.8684 62.9256 69.45 62.8001 69.0483L61.7575 65.7051C61.7575 65.7051 61.8505 66.1827 61.2027 66.3845L52.9981 68.9426C52.5956 69.0684 52.3714 69.4953 52.4969 69.8973ZM55.1845 68.7278C55.1738 68.3816 58.3025 67.8917 59.5427 67.4469C60.782 67.0017 61.7152 66.167 61.6701 66.9386C61.6246 67.71 62.2918 68.4243 62.2169 68.5547C62.0481 68.8457 61.519 68.1795 61.0936 67.8122C60.6687 67.4453 55.2214 69.8996 55.1845 68.7278Z" fill="#0081A7"/>
<path d="M48.426 75.9069C48.4935 76.1249 48.7259 76.2467 48.9438 76.179L62.6499 71.9051C62.8679 71.8369 62.9899 71.605 62.9213 71.3871C62.8538 71.1693 62.6219 71.0477 62.4039 71.1154L48.6981 75.3893C48.4794 75.457 48.3576 75.6889 48.426 75.9069ZM62.6272 71.4791C62.6157 71.4439 62.6355 71.4074 62.6707 71.3961L62.7969 71.3568C62.8316 71.3464 62.8688 71.3653 62.8799 71.4005C62.891 71.4351 62.8718 71.4726 62.8362 71.483L62.7102 71.5225C62.6755 71.5334 62.6381 71.5135 62.6272 71.4791ZM62.12 71.6374C62.1092 71.6025 62.1284 71.5655 62.1635 71.5544L62.4173 71.4754C62.4518 71.4643 62.4892 71.4837 62.5001 71.5186C62.5109 71.5533 62.4915 71.5907 62.4564 71.6016L62.2026 71.6806C62.1679 71.6915 62.1309 71.6721 62.12 71.6374ZM61.6133 71.7953C61.6022 71.7604 61.6214 71.7229 61.6565 71.7121L61.9104 71.6335C61.9448 71.6226 61.982 71.6423 61.9931 71.6772C62.004 71.7118 61.9846 71.7488 61.9494 71.7597L61.6961 71.8385C61.6609 71.8494 61.6246 71.8304 61.6133 71.7953ZM61.1059 71.9532C61.0953 71.9183 61.1144 71.8811 61.1496 71.8704L61.4034 71.7916C61.4379 71.7805 61.4753 71.8001 61.4857 71.8351C61.497 71.8697 61.4772 71.9067 61.4422 71.9176L61.1889 71.9969C61.154 72.0073 61.117 71.9883 61.1059 71.9532ZM60.5989 72.1113C60.5874 72.0766 60.6073 72.0392 60.6424 72.0288L60.8962 71.9495C60.9307 71.9389 60.9683 71.958 60.9792 71.9929C60.9896 72.0279 60.9704 72.0651 60.9353 72.0757L60.6819 72.1548C60.6468 72.1659 60.61 72.1462 60.5989 72.1113ZM60.092 72.2697C60.0804 72.2347 60.1003 72.1978 60.1354 72.1869L60.3888 72.1076C60.4242 72.097 60.4614 72.1162 60.4718 72.1513C60.4827 72.1862 60.463 72.2232 60.4281 72.2341L60.1743 72.3129C60.1396 72.3237 60.1031 72.3043 60.092 72.2697ZM59.5848 72.4273C59.5739 72.3926 59.5934 72.3554 59.6285 72.3443L59.8821 72.2657C59.917 72.2549 59.9542 72.2743 59.9646 72.3094C59.9757 72.3439 59.9563 72.3811 59.9214 72.3917L59.6671 72.4712C59.6324 72.4821 59.5959 72.4622 59.5848 72.4273ZM59.0778 72.5857C59.067 72.5508 59.0862 72.5138 59.1213 72.5031L59.3744 72.4236C59.4098 72.4127 59.447 72.4319 59.4574 72.4671C59.4685 72.5018 59.4486 72.5392 59.414 72.5501L59.1606 72.6284C59.1257 72.6398 59.0885 72.6208 59.0778 72.5857ZM58.5711 72.7436C58.56 72.7084 58.579 72.6717 58.6144 72.6606L58.8679 72.5817C58.9031 72.5711 58.9403 72.5903 58.9507 72.6252C58.9618 72.6596 58.9421 72.6971 58.9077 72.708L58.6539 72.787C58.619 72.7981 58.5815 72.7787 58.5711 72.7436ZM58.0639 72.9019C58.0528 72.867 58.0718 72.83 58.1074 72.8189L58.3608 72.7396C58.3959 72.729 58.4327 72.7482 58.4435 72.7831C58.4546 72.8182 58.435 72.8557 58.4001 72.8661L58.1467 72.9454C58.1118 72.956 58.0743 72.9366 58.0639 72.9019ZM57.557 73.0598C57.5459 73.0249 57.5651 72.9879 57.6 72.977L57.854 72.898C57.8882 72.8871 57.9259 72.9068 57.9363 72.9417C57.9474 72.9763 57.9278 73.0138 57.8929 73.0242L57.6395 73.1035C57.6053 73.1146 57.5678 73.0947 57.557 73.0598ZM57.05 73.2179C57.0389 73.183 57.0581 73.146 57.093 73.1352L57.3466 73.0563C57.3818 73.0455 57.4185 73.0649 57.4294 73.0998C57.4405 73.1342 57.4208 73.1712 57.3857 73.1825L57.1323 73.2611C57.0979 73.2725 57.0609 73.253 57.05 73.2179ZM56.5424 73.376C56.5315 73.3414 56.5509 73.3044 56.5858 73.2933L56.8394 73.2147C56.8743 73.2038 56.9113 73.2232 56.9222 73.2579C56.9335 73.2928 56.9139 73.3298 56.8792 73.3407L56.6251 73.4197C56.5907 73.4304 56.5532 73.4107 56.5424 73.376ZM56.0354 73.5344C56.0248 73.4995 56.044 73.4625 56.0791 73.4516L56.3325 73.3726C56.3672 73.3617 56.4048 73.3809 56.4152 73.4158C56.4259 73.4507 56.4067 73.4879 56.3722 73.4985L56.1182 73.5774C56.0837 73.5885 56.0468 73.5691 56.0354 73.5344ZM55.5285 73.6923C55.5174 73.6571 55.537 73.6201 55.5722 73.6093L55.8255 73.5304C55.8604 73.5196 55.8976 73.539 55.9085 73.5739C55.9194 73.6084 55.8995 73.6458 55.8648 73.6567L55.6112 73.7357C55.5768 73.7468 55.5396 73.7274 55.5285 73.6923ZM55.0211 73.8506C55.0104 73.8157 55.0298 73.7787 55.065 73.7679L55.3188 73.6883C55.353 73.6775 55.3905 73.6969 55.4011 73.7318C55.4117 73.7665 55.3925 73.8035 55.3581 73.8148L55.1038 73.8939C55.0696 73.9047 55.0322 73.8853 55.0211 73.8506ZM54.5143 74.0085C54.5032 73.9736 54.5229 73.9362 54.558 73.9258L54.8114 73.8462C54.8461 73.8356 54.8835 73.8552 54.8941 73.8897C54.9052 73.9244 54.8856 73.9616 54.8505 73.9727L54.5971 74.0515C54.5626 74.0626 54.5252 74.0434 54.5143 74.0085ZM54.0074 74.1666C53.997 74.1317 54.0159 74.0947 54.0513 74.0836L54.3047 74.0048C54.3396 73.9937 54.3768 74.0134 54.3881 74.0483C54.3985 74.0827 54.3789 74.1197 54.3444 74.1306L54.0906 74.2099C54.0552 74.2212 54.018 74.2013 54.0074 74.1666ZM53.5002 74.3247C53.4898 74.2896 53.5083 74.2526 53.5436 74.2422L53.7979 74.1629C53.8324 74.1521 53.8694 74.1715 53.8805 74.2064C53.8909 74.2415 53.8717 74.2785 53.8368 74.2894L53.5834 74.3684C53.5485 74.3791 53.5111 74.3594 53.5002 74.3247ZM52.9932 74.4826C52.9828 74.4477 53.0018 74.411 53.0369 74.3999L53.2903 74.3208C53.3254 74.31 53.3626 74.3294 53.3737 74.3643C53.3841 74.3992 53.3645 74.4362 53.3296 74.447L53.0762 74.5261C53.0416 74.5372 53.0041 74.5178 52.9932 74.4826ZM52.4861 74.641C52.4756 74.6056 52.4946 74.5689 52.5295 74.558L52.7833 74.4789C52.8185 74.4681 52.8557 74.4875 52.8663 74.5224C52.8772 74.5573 52.8575 74.5943 52.8224 74.6052L52.569 74.6842C52.5344 74.6951 52.4969 74.6757 52.4861 74.641ZM51.9791 74.7991C51.968 74.7642 51.9877 74.7272 52.0226 74.7163L52.2768 74.6371C52.3115 74.6267 52.3483 74.6461 52.3594 74.681C52.3698 74.7157 52.3506 74.7531 52.3157 74.7635L52.0623 74.843C52.0276 74.8532 51.9904 74.834 51.9791 74.7991ZM51.4717 74.9575C51.4613 74.9221 51.4809 74.8851 51.5158 74.8742L51.7697 74.7952C51.8043 74.7843 51.8413 74.804 51.8526 74.8386C51.8631 74.8733 51.8436 74.9105 51.809 74.9214L51.5547 75.0005C51.52 75.0113 51.4832 74.9917 51.4717 74.9575ZM50.965 75.1154C50.9546 75.0804 50.9737 75.0435 51.0086 75.0321L51.262 74.9531C51.2971 74.9422 51.3339 74.9616 51.345 74.9968C51.3559 75.0317 51.3364 75.0687 51.3013 75.0795L51.0479 75.1586C51.0128 75.1694 50.9761 75.15 50.965 75.1154ZM50.4585 75.2732C50.4471 75.2383 50.4668 75.2013 50.5019 75.1905L50.7557 75.1114C50.7904 75.1001 50.8276 75.12 50.8383 75.1544C50.8491 75.1896 50.8297 75.2265 50.7948 75.2374L50.5405 75.3165C50.5059 75.3278 50.4689 75.3081 50.4585 75.2732ZM49.951 75.4314C49.9402 75.3965 49.9598 75.3595 49.9947 75.3486L50.2481 75.2695C50.2828 75.2587 50.3205 75.2781 50.3311 75.3128C50.3415 75.3477 50.3225 75.3847 50.2874 75.3955L50.0336 75.4748C49.9991 75.4859 49.9619 75.4665 49.951 75.4314ZM49.4441 75.5895C49.433 75.5543 49.4526 75.5174 49.4876 75.5065L49.7409 75.4279C49.7756 75.4166 49.8128 75.4362 49.8239 75.4714C49.835 75.5058 49.8154 75.5432 49.7802 75.5541L49.5269 75.6332C49.4919 75.6438 49.4547 75.6244 49.4441 75.5895ZM48.9371 75.7478C48.926 75.7129 48.9457 75.6755 48.9806 75.6651L49.234 75.5858C49.2686 75.5754 49.3059 75.5943 49.317 75.6295C49.3274 75.6644 49.3084 75.7014 49.2733 75.7122L49.0201 75.7913C48.9852 75.8019 48.948 75.7823 48.9371 75.7478ZM48.5571 75.8662C48.5458 75.831 48.5657 75.7941 48.6006 75.7832L48.7268 75.7439C48.7615 75.7335 48.7987 75.7524 48.8098 75.7874C48.8209 75.8216 48.8012 75.859 48.7661 75.8699L48.6401 75.9096C48.6052 75.9203 48.5684 75.9006 48.5571 75.8662Z" fill="#0081A7"/>
<path d="M72.4821 73.8159C72.8078 74.0499 72.9671 74.3867 72.8427 74.6264C72.7186 74.8666 72.3513 74.9302 71.9722 74.7991L72.4821 73.8159Z" fill="#0081A7"/>
<path d="M66.5044 65.24C66.8983 64.4792 67.8341 64.1831 68.5942 64.5774C69.3538 64.9711 69.6508 65.9071 69.2572 66.6674L67.2495 70.5388C66.8745 70.3752 66.4956 70.1965 66.1165 70C66.2221 70.055 66.3278 70.1079 66.4334 70.1599L68.5054 66.1646C68.6705 65.8456 68.5463 65.4522 68.2268 65.2864C67.9071 65.1211 67.5139 65.246 67.3486 65.565L65.2861 69.5427C65.423 69.622 65.5635 69.7006 65.705 69.7787V69.7794C65.7173 69.7864 65.7302 69.7931 65.7425 69.8C65.73 69.7931 65.7184 69.7854 65.705 69.7785L67.7918 65.7545C67.8352 65.6702 67.9388 65.6371 68.0232 65.6808C68.1073 65.725 68.1408 65.8281 68.0967 65.9127L66.0076 69.9415C66.0441 69.9607 66.08 69.9806 66.1165 69.9997C65.5469 69.7041 65.0127 69.3918 64.5161 69.0741L66.5044 65.24Z" fill="#0081A7"/>
<path d="M68.043 69.4974C68.0273 69.5267 67.9907 69.5383 67.9609 69.523C67.9311 69.5076 67.9198 69.4708 67.9353 69.4412L68.0474 69.2248C68.0624 69.195 68.0994 69.1832 68.1292 69.1987C68.1586 69.214 68.1701 69.251 68.1549 69.2806L68.043 69.4974Z" fill="#0081A7"/>
<path d="M69.4379 65.4802C69.4138 65.406 69.384 65.3323 69.3503 65.262C69.3355 65.232 69.3484 65.1959 69.3782 65.1816C69.4076 65.1668 69.4446 65.179 69.4596 65.2091C69.4959 65.2847 69.5278 65.3633 69.5535 65.4435C69.5639 65.4754 69.5461 65.5096 69.5142 65.52C69.498 65.5249 69.4813 65.5228 69.4677 65.5158C69.4536 65.5087 69.4427 65.4967 69.4379 65.4802Z" fill="#0081A7"/>
<path d="M67.5941 70.3629C67.5787 70.3928 67.5419 70.4045 67.5121 70.3891C67.4822 70.3736 67.4705 70.3368 67.486 70.3072L67.5978 70.0908C67.614 70.061 67.6505 70.0497 67.6799 70.0647C67.71 70.08 67.7215 70.117 67.7063 70.1466L67.5941 70.3629Z" fill="#0081A7"/>
<path d="M67.8183 69.9304C67.803 69.96 67.7665 69.9718 67.7369 69.9561C67.7066 69.941 67.6949 69.9043 67.7106 69.8747L67.8232 69.6579C67.8384 69.628 67.8749 69.6163 67.9045 69.632C67.9348 69.6475 67.9459 69.684 67.9309 69.7136L67.8183 69.9304Z" fill="#0081A7"/>
<path d="M68.2954 64.3899C68.2906 64.3897 68.2873 64.3876 68.2825 64.3858C68.2582 64.3728 68.245 64.3442 68.252 64.3155C68.2605 64.2836 68.2947 64.2642 68.3269 64.2732C68.4071 64.2949 68.4873 64.3229 68.5645 64.3564C68.5969 64.3698 68.6098 64.4054 68.5962 64.4362C68.5828 64.4669 68.5476 64.4813 68.5167 64.4676C68.4448 64.4366 68.3703 64.411 68.2954 64.3899Z" fill="#0081A7"/>
<path d="M68.928 64.7194C68.9238 64.7175 68.9206 64.7152 68.9171 64.7124C68.857 64.6625 68.7925 64.617 68.7257 64.5763C68.6968 64.5587 68.6878 64.521 68.7054 64.493C68.7227 64.4642 68.7609 64.4565 68.7884 64.4727C68.861 64.5162 68.9303 64.5656 68.9943 64.6186C69.02 64.6398 69.0239 64.678 69.0024 64.7041C68.9837 64.727 68.9525 64.7323 68.928 64.7194Z" fill="#0081A7"/>
<path d="M69.2546 65.0787C69.2462 65.0741 69.2386 65.0674 69.2328 65.0588C69.1889 64.9939 69.1399 64.9319 69.0874 64.8744C69.0648 64.8492 69.0666 64.811 69.0911 64.7884C69.1163 64.7657 69.1549 64.7673 69.1769 64.7928C69.2328 64.8545 69.2858 64.9211 69.3327 64.9906C69.3521 65.0186 69.345 65.0563 69.317 65.0748C69.2978 65.088 69.274 65.0887 69.2546 65.0787Z" fill="#0081A7"/>
<path d="M69.1651 67.3325C69.1498 67.3621 69.1133 67.3739 69.0832 67.3582C69.0534 67.343 69.0416 67.3064 69.0571 67.2768L69.1695 67.06C69.1847 67.0306 69.2217 67.0189 69.2513 67.0339C69.2811 67.0498 69.2927 67.0859 69.2772 67.1159L69.1651 67.3325Z" fill="#0081A7"/>
<path d="M69.55 65.9941C69.5312 65.9844 69.5176 65.9649 69.5169 65.9423C69.5146 65.8641 69.5067 65.7853 69.4931 65.7081C69.4882 65.6753 69.5102 65.6438 69.5433 65.6381C69.5763 65.6325 69.6078 65.6545 69.6133 65.6875C69.6269 65.7708 69.636 65.8551 69.638 65.9388C69.6392 65.9719 69.6126 65.9998 69.5791 66.0012C69.5687 66.0012 69.5588 65.9989 69.55 65.9941Z" fill="#0081A7"/>
<path d="M69.5736 66.1235C69.6073 66.1269 69.6309 66.1572 69.627 66.1907C69.6173 66.2737 69.6022 66.3572 69.5805 66.4388C69.5717 66.4707 69.5387 66.4901 69.5065 66.4816C69.5019 66.4804 69.4977 66.4788 69.494 66.4767C69.4693 66.4638 69.4557 66.4351 69.4633 66.4076C69.4829 66.332 69.4975 66.2543 69.5068 66.1766C69.5105 66.1431 69.5403 66.1195 69.5736 66.1235Z" fill="#0081A7"/>
<path d="M67.8304 64.3334C67.82 64.3337 67.8096 64.3309 67.801 64.3263C67.7821 64.3165 67.7687 64.2964 67.7685 64.2738C67.7675 64.2403 67.7941 64.2128 67.8276 64.2118C67.9115 64.21 67.9964 64.2146 68.0791 64.2243C68.1127 64.2287 68.1362 64.259 68.1328 64.292C68.1279 64.3251 68.0979 64.3489 68.0648 64.345C67.9874 64.3357 67.9085 64.332 67.8304 64.3334Z" fill="#0081A7"/>
<path d="M68.7162 68.1991C68.701 68.2289 68.6638 68.2405 68.6342 68.225C68.6053 68.2095 68.593 68.1728 68.609 68.1429L68.7206 67.927C68.7361 67.897 68.7726 67.8854 68.8027 67.9009C68.8325 67.9164 68.8443 67.9525 68.8288 67.9825L68.7162 68.1991Z" fill="#0081A7"/>
<path d="M68.4915 68.6321C68.4762 68.6617 68.4397 68.6735 68.4097 68.6578C68.3803 68.6425 68.368 68.606 68.384 68.5759L68.4963 68.3595C68.5116 68.3295 68.5481 68.3182 68.5782 68.3334C68.608 68.3489 68.6198 68.3857 68.6041 68.4155L68.4915 68.6321Z" fill="#0081A7"/>
<path d="M68.267 69.0644C68.2518 69.0944 68.215 69.106 68.1852 69.0905C68.1554 69.075 68.1441 69.0382 68.1591 69.0087L68.2719 68.7918C68.2872 68.7622 68.3237 68.7507 68.3537 68.7662C68.3831 68.7814 68.3949 68.8179 68.3794 68.8478L68.267 69.0644Z" fill="#0081A7"/>
<path d="M68.9409 67.7661C68.9249 67.7959 68.8882 67.8077 68.8586 67.7919C68.829 67.7765 68.8174 67.7399 68.8329 67.7101L68.9453 67.4937C68.9605 67.4642 68.9975 67.4524 69.0271 67.4676C69.0574 67.4831 69.0685 67.5196 69.0532 67.5492L68.9409 67.7661Z" fill="#0081A7"/>
<path d="M69.4987 66.6773C69.4811 66.7201 69.461 66.7626 69.4393 66.8047L69.3896 66.9004C69.3741 66.93 69.3376 66.9413 69.3075 66.9261C69.2782 66.9106 69.2664 66.8743 69.2819 66.8445L69.3316 66.7487C69.3519 66.7095 69.3704 66.6697 69.3877 66.6302C69.4 66.5994 69.4356 66.5849 69.4663 66.5983C69.4978 66.6105 69.5126 66.6461 69.4987 66.6773Z" fill="#0081A7"/>
<path d="M64.7728 68.3551C64.7571 68.3852 64.7208 68.3967 64.691 68.3812C64.6607 68.3657 64.6492 68.329 64.6644 68.2994L64.7768 68.0826C64.792 68.053 64.8292 68.0409 64.8588 68.0569C64.8887 68.0721 64.9 68.1091 64.8845 68.1387L64.7728 68.3551Z" fill="#0081A7"/>
<path d="M64.548 68.7887C64.533 68.8183 64.496 68.8298 64.4662 68.8148C64.4366 68.7993 64.425 68.7625 64.4407 68.7327L64.5531 68.5163C64.5681 68.4865 64.6051 68.4747 64.6345 68.4902C64.6645 68.5057 64.6763 68.542 64.6606 68.5716L64.548 68.7887Z" fill="#0081A7"/>
<path d="M67.3218 64.4048C67.3074 64.3979 67.2968 64.3854 67.2917 64.3694C67.2818 64.3375 67.2993 64.3031 67.3315 64.2934C67.4115 64.2677 67.494 64.2488 67.5772 64.2347C67.6103 64.2293 67.6408 64.252 67.6466 64.2848C67.6516 64.3177 67.6299 64.3491 67.5964 64.3544C67.519 64.3674 67.4424 64.3856 67.368 64.409C67.3518 64.4138 67.3349 64.4117 67.3218 64.4048Z" fill="#0081A7"/>
<path d="M64.9973 67.922C64.9818 67.9521 64.9453 67.9636 64.916 67.9482C64.8859 67.9327 64.8739 67.8964 64.8896 67.8661L65.002 67.6502C65.0174 67.6201 65.0535 67.6086 65.0838 67.6241C65.1136 67.6395 65.1249 67.6758 65.1092 67.7059L64.9973 67.922Z" fill="#0081A7"/>
<path d="M67.0973 64.3861C67.1272 64.3713 67.1632 64.384 67.1778 64.4145C67.1924 64.4448 67.1796 64.4811 67.1489 64.4954C67.0786 64.5291 67.01 64.5682 66.9452 64.6117C66.9263 64.6242 66.9025 64.6246 66.8833 64.6149C66.8747 64.6105 66.8671 64.6036 66.8604 64.5948C66.8421 64.5666 66.8498 64.5294 66.8775 64.5104C66.9475 64.464 67.0206 64.4223 67.0973 64.3861Z" fill="#0081A7"/>
<path d="M66.439 65.0313C66.4674 65.0491 66.4757 65.0866 66.4589 65.115C66.4364 65.1508 66.4152 65.1878 66.3953 65.226L66.3442 65.3249C66.3287 65.3547 66.2922 65.3665 66.2624 65.351C66.2328 65.3355 66.2215 65.2988 66.2365 65.2692L66.2878 65.1705C66.3086 65.1296 66.3317 65.0898 66.3558 65.0512C66.3731 65.0225 66.4092 65.0131 66.439 65.0313Z" fill="#0081A7"/>
<path d="M66.6787 64.6649C66.703 64.6427 66.7414 64.6445 66.764 64.6695C66.786 64.6945 66.7841 64.7328 66.7592 64.7555C66.7007 64.8073 66.6461 64.8641 66.596 64.924C66.5765 64.9467 66.5458 64.952 66.5215 64.939C66.5174 64.9372 66.5139 64.9344 66.5102 64.9321C66.4845 64.9104 66.4808 64.8718 66.5028 64.8461C66.5564 64.7821 66.6158 64.721 66.6787 64.6649Z" fill="#0081A7"/>
<path d="M66.0376 65.784C66.0078 65.7685 65.9962 65.7318 66.0115 65.7019L66.1243 65.4856C66.1396 65.456 66.1763 65.4446 66.2059 65.4599C66.2359 65.4752 66.2473 65.5117 66.2318 65.5417L66.1199 65.7581C66.1042 65.7875 66.0677 65.7995 66.0376 65.784Z" fill="#0081A7"/>
<path d="M65.8948 66.1907C65.8795 66.2206 65.8432 66.2321 65.8127 66.2164C65.7831 66.2012 65.7716 66.1646 65.7873 66.1346L65.8992 65.9182C65.9147 65.8884 65.9512 65.8766 65.981 65.8921C66.0108 65.9076 66.0226 65.9443 66.0067 65.9741L65.8948 66.1907Z" fill="#0081A7"/>
<path d="M65.67 66.6237C65.6554 66.6535 65.6189 66.6653 65.5884 66.6498C65.5588 66.6343 65.5473 66.598 65.5625 66.5679L65.6749 66.3511C65.6901 66.3213 65.7269 66.31 65.7567 66.325C65.7865 66.3405 65.7983 66.3772 65.7828 66.4073L65.67 66.6237Z" fill="#0081A7"/>
<path d="M65.2215 67.4893C65.2061 67.5191 65.1695 67.5309 65.1397 67.5159C65.1104 67.4999 65.0981 67.4637 65.1138 67.4338L65.2257 67.2175C65.2417 67.1874 65.2786 67.1761 65.3078 67.1913C65.3376 67.2068 65.3494 67.2436 65.3339 67.2734L65.2215 67.4893Z" fill="#0081A7"/>
<path d="M65.4461 67.0565C65.4308 67.0864 65.394 67.0982 65.3642 67.0829C65.3346 67.0674 65.3228 67.0304 65.3381 67.0008L65.45 66.7845C65.4662 66.7544 65.5029 66.7428 65.5325 66.7583C65.5623 66.7736 65.5737 66.8103 65.5582 66.8402L65.4461 67.0565Z" fill="#0081A7"/>
<path d="M67.4773 70.6362C67.499 70.6457 67.5214 70.6545 67.5432 70.664V70.6651C67.5214 70.6556 67.499 70.6459 67.4773 70.6362Z" fill="#0081A7"/>
<path d="M63.2486 68.1988C63.5612 68.4302 63.8931 68.6653 64.2477 68.8999L66.2291 65.0787C66.7044 64.1624 67.8322 63.8047 68.7491 64.2802C69.6647 64.7553 70.0223 65.8829 69.5473 66.7995L67.543 70.664C68.9712 71.2611 70.3199 71.634 71.3224 71.858L73.0373 72.1638C73.8135 70.8961 74.1841 70.2007 74.9384 70.0567C78.1861 69.4372 80.3318 66.5903 82.2161 63.3232C83.4727 61.1428 83.0725 59.7137 82.6671 59.0031C82.2868 58.5648 81.391 58.6067 80.9201 58.7252C80.1931 58.9076 79.9092 59.8328 79.6711 60.5122C79.8713 60.5485 80.3554 60.6888 80.3799 61.2105C80.3799 61.2105 80.0724 60.6967 79.5863 60.7436C79.5837 60.751 79.5805 60.7591 79.5782 60.7662C79.4284 61.15 79.243 61.5256 79.052 61.898C79.3405 62.0381 79.9266 62.3888 79.93 62.9237C79.93 62.9237 79.559 62.3474 78.8808 62.2312C78.7985 62.3907 78.7169 62.5499 78.6383 62.7088C78.4861 63.0162 78.3218 63.3211 78.132 63.6078C78.046 63.7629 77.8985 64.1018 78.0647 64.3827C78.0647 64.3827 77.9152 64.2042 77.8389 64.0047C77.693 64.1822 77.5328 64.3487 77.3516 64.4955C77.1535 64.6566 76.9426 64.3191 77.1393 64.1596C77.9198 63.528 78.3038 62.4854 78.7293 61.6068C78.816 61.4276 78.8969 61.2441 78.9753 61.0594C77.2223 62.8657 74.6143 63.7777 72.1207 63.2404C69.5806 62.6933 67.126 60.9038 66.2002 58.434C65.5901 56.8056 65.7406 55.0027 66.2443 53.3566C66.2258 53.345 66.1942 53.3242 66.1681 53.3101C66.0756 53.2632 65.9748 53.2447 65.8712 53.2507C65.3319 53.2814 65.1123 54.1657 65.0094 54.5566C64.9438 54.8032 64.5552 54.7214 64.6206 54.474C64.7769 53.8822 65.0393 53.0378 65.7251 52.8744C65.9408 52.8226 66.1738 52.8646 66.3699 52.9694C66.4307 52.7939 66.4933 52.6196 66.5615 52.4488C66.6549 52.2102 67.0072 52.3956 66.9131 52.6314C66.2173 54.3927 65.9394 56.3518 66.5326 58.1825C67.3378 60.6694 69.8927 62.3551 72.3534 62.8847C75.0676 63.4691 78.0233 62.0226 79.5058 59.7798C79.5139 59.7674 79.5225 59.7567 79.532 59.7472C79.63 59.5367 79.7342 59.3309 79.8496 59.1326C80.2761 58.4002 81.4918 58.0153 82.3575 58.3228C83.4741 56.4933 81.7706 54.8631 79.2134 53.226C76.5866 51.5447 71.3377 49.7936 68.2534 49.4371C65.2055 49.085 63.1474 51.8493 62.4693 54.9336C62.3667 55.4045 62.2502 55.9517 62.1279 56.54C62.4226 56.4794 62.9844 56.4117 63.7408 56.5393C63.7408 56.5393 62.6453 56.5245 61.9848 57.237C61.982 57.2518 61.9788 57.2668 61.976 57.2816C62.2342 57.2333 62.7266 57.2275 63.0577 57.7601C63.0577 57.7601 62.317 57.3334 61.89 57.7026C61.4467 59.8883 60.9788 62.3114 60.7439 63.5322C60.7705 63.617 60.7973 63.7023 60.8237 63.7872C61.0451 63.8161 61.2603 63.8836 61.4642 63.9804C61.8468 64.163 62.0655 64.4945 62.2118 64.8767C62.25 64.9758 62.2678 65.0822 62.2724 65.1906C62.3184 65.2623 62.3568 65.3411 62.3847 65.4289C62.6249 66.2015 62.8658 66.9736 63.1064 67.7455C63.1531 67.8927 63.2022 68.0451 63.2486 68.1988ZM72.393 50.936C75.8305 51.9236 77.6354 52.7303 79.581 54.1252C82.2896 56.0675 81.7264 57.8006 81.7264 57.8006C81.8552 56.7739 80.4014 54.9419 78.2219 53.6356C75.3589 51.9199 72.393 50.936 72.393 50.936ZM67.3609 58.504C67.3609 58.504 68.5861 61.1842 71.1761 62.1301C71.1761 62.1301 67.8586 61.4112 67.3609 58.504ZM66.1937 62.8851C66.1937 62.8851 69.836 62.5446 71.3629 65.5651C71.3629 65.5651 69.7325 63.535 66.1937 62.8851Z" fill="#0081A7"/>
<path d="M63.4652 69.5265C64.1291 69.9794 64.8691 70.4332 65.6782 70.853C67.6743 71.8882 69.6806 72.4652 71.0584 72.7731L72.5388 73.0368L72.8564 72.4249C72.8564 72.4249 69.3792 72.047 65.9355 70.2612C64.981 69.766 64.1256 69.2226 63.382 68.6899C63.4148 68.8326 63.4414 68.975 63.4564 69.1164C63.4666 69.1162 63.477 69.1176 63.4858 69.1243C63.5546 69.1733 63.6249 69.2221 63.6959 69.2711C63.7183 69.2861 63.7229 69.3178 63.7072 69.3416C63.6924 69.3633 63.6651 69.3703 63.6439 69.3589C63.6416 69.3585 63.6404 69.3571 63.639 69.3564C63.5808 69.3159 63.5223 69.2757 63.4659 69.2353C63.4721 69.3335 63.4721 69.4308 63.4652 69.5265ZM72.408 72.6691C72.4131 72.6413 72.4392 72.6224 72.4655 72.6265L72.5947 72.6476C72.6218 72.6522 72.6387 72.6781 72.6331 72.7056C72.628 72.7336 72.6024 72.7527 72.5756 72.7481L72.4466 72.7271C72.4413 72.7264 72.4366 72.7243 72.4327 72.7222C72.4147 72.713 72.4038 72.6917 72.408 72.6691ZM71.8994 72.5861C71.9047 72.5581 71.9311 72.5394 71.9577 72.5438L72.2115 72.5854C72.2385 72.5898 72.2552 72.6159 72.2501 72.6434C72.245 72.6711 72.2191 72.6901 72.1925 72.6855L71.9382 72.6441C71.9329 72.6434 71.9283 72.6418 71.9244 72.6399C71.9056 72.6302 71.8955 72.6087 71.8994 72.5861ZM71.3913 72.5033C71.3966 72.4756 71.4227 72.4566 71.4488 72.4612L71.7031 72.5026C71.7302 72.5068 71.7473 72.5329 71.742 72.5604C71.7369 72.5881 71.7108 72.6066 71.6842 72.6025L71.4299 72.5611C71.4246 72.5604 71.4202 72.5588 71.4158 72.5565C71.3973 72.5472 71.3867 72.5257 71.3913 72.5033ZM70.8853 72.4083C70.8915 72.381 70.9188 72.3637 70.9454 72.3695C71.0087 72.3831 71.0713 72.3967 71.1301 72.409L71.1946 72.4194C71.2216 72.4238 71.2387 72.4497 71.2336 72.4774C71.2278 72.5054 71.2022 72.5241 71.1754 72.5195L71.1086 72.5091C71.0468 72.4959 70.9847 72.4823 70.9206 72.4691C70.9169 72.4677 70.9132 72.4663 70.9095 72.4647C70.8901 72.4548 70.8797 72.4316 70.8853 72.4083ZM70.3845 72.292C70.3915 72.2647 70.4188 72.2476 70.4451 72.2539C70.5295 72.2745 70.6132 72.2943 70.6948 72.3131C70.7204 72.3193 70.7368 72.3461 70.7294 72.3739C70.7225 72.4011 70.6957 72.418 70.6693 72.4125C70.5873 72.3937 70.5036 72.3739 70.4183 72.3533C70.4146 72.3521 70.4111 72.351 70.4081 72.3494C70.3882 72.3389 70.3783 72.3154 70.3845 72.292ZM69.8866 72.1642C69.8942 72.1369 69.9217 72.1205 69.9481 72.1277C70.0318 72.1501 70.115 72.1716 70.1964 72.1924C70.222 72.1991 70.2375 72.2266 70.2299 72.2539C70.2223 72.2812 70.1952 72.2978 70.1684 72.2913C70.087 72.2703 70.004 72.2486 69.9197 72.2264C69.916 72.2257 69.913 72.2245 69.9097 72.2224C69.8903 72.212 69.8799 72.188 69.8866 72.1642ZM69.3919 72.0255C69.4 71.9982 69.4277 71.9825 69.4543 71.9901C69.5373 72.0142 69.6194 72.0375 69.7005 72.0602C69.7264 72.0671 69.741 72.0955 69.7331 72.1226C69.7248 72.1503 69.6973 72.1653 69.6707 72.1586C69.5893 72.1357 69.5068 72.1124 69.4238 72.0881C69.4208 72.0874 69.418 72.0863 69.415 72.0847C69.3949 72.074 69.3845 72.0495 69.3919 72.0255ZM68.9004 71.8752C68.9097 71.8484 68.9374 71.8332 68.9633 71.8415C69.0451 71.8676 69.127 71.8928 69.2079 71.9173C69.2342 71.9252 69.2476 71.9531 69.2396 71.9799C69.2303 72.0072 69.2026 72.0227 69.1769 72.0146C69.0955 71.9903 69.0142 71.9649 68.9309 71.9388C68.9284 71.9381 68.9261 71.9369 68.9235 71.9356C68.9027 71.9252 68.8923 71.8993 68.9004 71.8752ZM68.4136 71.7141C68.4228 71.6873 68.4517 71.6727 68.4767 71.6817C68.5585 71.7092 68.6394 71.7361 68.7197 71.7631C68.7453 71.7714 68.759 71.7996 68.7495 71.8269C68.7405 71.8533 68.712 71.8681 68.6868 71.8595C68.6055 71.8332 68.5243 71.8059 68.4425 71.7779C68.4404 71.7772 68.4381 71.7763 68.4362 71.7756C68.415 71.7643 68.4048 71.7381 68.4136 71.7141ZM67.9302 71.5405C67.9402 71.5146 67.969 71.501 67.9942 71.5097C68.0752 71.5396 68.1554 71.5689 68.2354 71.5969C68.2606 71.6059 68.2723 71.635 68.2633 71.6614C68.2532 71.688 68.225 71.7021 68.1998 71.6931C68.1193 71.6651 68.0389 71.6353 67.9575 71.6057C67.9559 71.6048 67.9538 71.6041 67.9522 71.6031C67.9309 71.592 67.921 71.5655 67.9302 71.5405ZM67.4522 71.3558C67.4626 71.3297 67.4915 71.3163 67.5162 71.3267C67.5957 71.3586 67.6759 71.3898 67.755 71.4201C67.7806 71.4293 67.792 71.4587 67.7813 71.485C67.7709 71.5114 67.742 71.5245 67.7168 71.5153C67.6378 71.4845 67.5576 71.4533 67.4774 71.4219C67.4762 71.4207 67.4746 71.4203 67.4734 71.4196C67.4517 71.4085 67.4418 71.3805 67.4522 71.3558ZM66.9785 71.1593C66.9898 71.1329 67.0189 71.1205 67.0437 71.1313C67.1227 71.1651 67.2013 71.1981 67.2792 71.2305C67.3037 71.2411 67.3155 71.2703 67.3044 71.2964C67.2936 71.3225 67.2642 71.3352 67.2395 71.325C67.1609 71.2922 67.0818 71.2592 67.003 71.2249C67.0016 71.2247 67.0007 71.2243 66.9995 71.2236C66.9769 71.2118 66.9676 71.1838 66.9785 71.1593ZM66.5104 70.9496C66.5226 70.9235 66.552 70.9122 66.5767 70.9235C66.6539 70.9593 66.7323 70.9942 66.8093 71.0289C66.8345 71.0395 66.8444 71.0696 66.8329 71.0953C66.8213 71.1218 66.7917 71.1339 66.7674 71.1225C66.6893 71.0883 66.6116 71.0525 66.533 71.0162C66.5323 71.0162 66.5312 71.0155 66.5312 71.0155C66.5076 71.0033 66.4981 70.9744 66.5104 70.9496ZM66.0483 70.727C66.0614 70.7013 66.0908 70.6907 66.1151 70.7025C66.1916 70.7406 66.2681 70.7781 66.3449 70.8146C66.3714 70.8262 66.3784 70.8562 66.3666 70.8821C66.3543 70.9073 66.3245 70.9186 66.3002 70.9071C66.223 70.8706 66.1461 70.8331 66.0691 70.7945L66.0686 70.794C66.0448 70.7813 66.0362 70.7517 66.0483 70.727ZM65.5938 70.4912C65.607 70.466 65.6345 70.4609 65.6606 70.4686C65.7202 70.5005 65.7808 70.5324 65.8411 70.5636L65.8871 70.5874C65.911 70.5996 65.9197 70.6301 65.9068 70.6549C65.8938 70.6805 65.864 70.6907 65.8402 70.6782L65.7937 70.6544C65.7327 70.623 65.6728 70.5908 65.6123 70.5592C65.5885 70.5467 65.5804 70.5159 65.5938 70.4912ZM65.1449 70.2432C65.1585 70.2184 65.1842 70.2092 65.2121 70.2219C65.2861 70.2644 65.3605 70.3056 65.4357 70.3467C65.4592 70.3599 65.4673 70.3907 65.4537 70.4152C65.4405 70.4397 65.4112 70.4494 65.3874 70.4376L65.3864 70.4369C65.3111 70.3953 65.2359 70.3537 65.162 70.3121C65.1386 70.2984 65.1312 70.2677 65.1449 70.2432ZM64.7029 69.9831C64.7174 69.9591 64.7479 69.9505 64.7711 69.9641C64.8434 70.0076 64.9165 70.0513 64.9902 70.0948C65.014 70.1082 65.0212 70.1387 65.0068 70.1636C64.993 70.1875 64.9641 70.1967 64.9412 70.1847C64.9405 70.1845 64.94 70.184 64.9389 70.1835C64.8651 70.1401 64.7905 70.0959 64.7181 70.0525C64.6955 70.0386 64.6885 70.0078 64.7029 69.9831ZM64.2671 69.7124C64.2828 69.6884 64.3131 69.681 64.3358 69.6953C64.4072 69.7406 64.4791 69.7861 64.5521 69.831C64.5753 69.8451 64.582 69.8763 64.5669 69.9006C64.5533 69.9239 64.5244 69.932 64.5022 69.9207C64.5011 69.9198 64.4999 69.9191 64.4994 69.9184C64.4257 69.8738 64.3529 69.8278 64.2814 69.7818C64.2586 69.7677 64.2523 69.7367 64.2671 69.7124ZM63.8387 69.4308C63.8545 69.407 63.885 69.4001 63.9074 69.4149C63.9779 69.462 64.0489 69.5094 64.1205 69.5561C64.1437 69.5709 64.149 69.6026 64.134 69.6262C64.1196 69.6488 64.0916 69.6565 64.0699 69.6449C64.0681 69.6444 64.0665 69.6437 64.0658 69.6424C63.9932 69.5954 63.922 69.5478 63.8515 69.5009C63.8288 69.4856 63.823 69.4544 63.8387 69.4308Z" fill="#0081A7"/>
<path d="M63.203 70.5516C63.1692 70.5093 63.1334 70.4684 63.0955 70.4302C63.2654 70.2379 63.3678 70.0287 63.4219 69.8091C64.0557 70.2335 64.7583 70.6593 65.5237 71.0562C68.9672 72.842 72.4171 73.272 72.4171 73.272L71.7028 74.6491L63.9325 70.62C63.6981 70.4991 63.4376 70.4816 63.203 70.5516Z" fill="#0081A7"/>
<path d="M61.4669 73.2485L61.2785 73.6115C61.0293 74.0914 61.2168 74.6825 61.6974 74.9314L69.4677 78.961L69.3015 79.2816L59.093 73.9887C59.8838 73.7421 60.6751 73.4952 61.4669 73.2485Z" fill="#0081A7"/>
<path d="M62.0069 73.6056C61.8132 73.9797 61.9591 74.4395 62.3333 74.6334L69.9624 78.5896C70.3367 78.7834 70.7701 78.6239 70.9638 78.2501L72.5758 75.1413C72.5758 75.1413 72.3048 75.5456 71.7031 75.2335L64.0736 71.2771C63.8993 71.1869 63.7069 71.1707 63.5308 71.2172C63.5449 71.2794 63.5518 71.3423 63.5465 71.4028C63.6096 72.0219 63.3197 72.671 62.5451 72.9124C62.4741 72.9345 62.4034 72.9567 62.332 72.9789L62.0069 73.6056ZM65.7782 72.6636C66.014 72.4093 68.5821 74.2633 69.7763 74.8197C70.9701 75.3762 72.2205 75.4402 71.6455 75.9559C71.0699 76.4724 71.0417 77.4495 70.8965 77.4893C70.5715 77.5776 70.6642 76.7313 70.6208 76.1711C70.5773 75.6108 64.9798 73.5219 65.7782 72.6636Z" fill="#0081A7"/>
<path d="M57.7347 74.4115L68.8468 80.1739C69.0496 80.2788 69.2988 80.2 69.4035 79.9966C69.5091 79.7939 69.4294 79.5444 69.2273 79.4395L58.8564 74.062C58.6992 74.111 58.5422 74.16 58.3846 74.2088L58.6109 74.326C58.643 74.3427 58.6557 74.3829 58.6386 74.4152C58.6224 74.4476 58.582 74.4603 58.5498 74.4434L58.3138 74.3212C58.2845 74.3057 58.2722 74.271 58.2831 74.2409C58.1002 74.2978 57.9176 74.3549 57.7347 74.4115ZM69.13 79.8546C69.1469 79.8223 69.1864 79.8098 69.2192 79.8267L69.3367 79.8879C69.369 79.9046 69.3817 79.9443 69.3651 79.9772C69.3485 80.0095 69.3082 80.0222 69.2754 80.0051L69.1582 79.9443C69.1261 79.927 69.1134 79.887 69.13 79.8546ZM68.6584 79.6103C68.6753 79.5777 68.7153 79.5655 68.7481 79.5823L68.9832 79.7046C69.0158 79.7213 69.0287 79.761 69.0116 79.7936C68.995 79.826 68.9548 79.8387 68.9222 79.8216L68.6871 79.6995C68.6545 79.6827 68.6415 79.6427 68.6584 79.6103ZM68.1871 79.366C68.2044 79.3334 68.2442 79.3209 68.2763 79.338L68.5123 79.4603C68.5445 79.4769 68.5567 79.5167 68.5408 79.5493C68.5234 79.5816 68.4839 79.5944 68.4508 79.5773L68.215 79.4552C68.1829 79.4383 68.1702 79.3986 68.1871 79.366ZM67.7152 79.1216C67.7324 79.089 67.7721 79.0765 67.8047 79.0936L68.04 79.2155C68.0729 79.2326 68.0856 79.2719 68.0689 79.3045C68.0523 79.3368 68.0123 79.35 67.9792 79.3329L67.7437 79.2108C67.7113 79.194 67.6984 79.1537 67.7152 79.1216ZM67.2444 78.8768C67.2605 78.8444 67.3008 78.8322 67.3334 78.8488L67.5687 78.9711C67.6017 78.9878 67.6142 79.028 67.5969 79.0604C67.5805 79.0929 67.5405 79.1054 67.5081 79.0883L67.2721 78.9665C67.24 78.9494 67.2272 78.9096 67.2444 78.8768ZM66.7721 78.6325C66.7892 78.6001 66.8292 78.5876 66.862 78.6045L67.0976 78.7268C67.1299 78.7434 67.1431 78.7832 67.1258 78.816C67.1091 78.8484 67.0687 78.8611 67.0368 78.8444L66.8007 78.7219C66.7681 78.7048 66.7559 78.6648 66.7721 78.6325ZM66.3007 78.3881C66.3178 78.3555 66.3578 78.343 66.3902 78.3599L66.626 78.4822C66.659 78.4991 66.6715 78.5386 66.6544 78.5712C66.6378 78.6036 66.5975 78.6165 66.5652 78.5992L66.3292 78.4771C66.2968 78.4605 66.2845 78.4202 66.3007 78.3881ZM65.8294 78.1438C65.8462 78.1109 65.8862 78.0985 65.9188 78.1153L66.1544 78.2374C66.1872 78.2547 66.1995 78.2943 66.1828 78.3266C66.1666 78.359 66.1262 78.3722 66.0936 78.3548L65.8578 78.2328C65.8254 78.2159 65.8127 78.1759 65.8294 78.1438ZM65.358 77.8992C65.3747 77.8664 65.4144 77.8541 65.4472 77.8708L65.6833 77.993C65.7156 78.0097 65.7279 78.0499 65.7112 78.082C65.6946 78.1144 65.6544 78.1271 65.622 78.1105L65.3864 77.988C65.3541 77.9713 65.3416 77.9316 65.358 77.8992ZM64.8864 77.6546C64.9031 77.622 64.9431 77.61 64.9757 77.6262L65.2115 77.7487C65.2443 77.7653 65.2568 77.8051 65.2401 77.8377C65.2232 77.8701 65.1832 77.8828 65.1513 77.8661L64.9144 77.7438C64.8823 77.727 64.8698 77.6867 64.8864 77.6546ZM64.4153 77.41C64.4319 77.3774 64.4717 77.365 64.5041 77.3818L64.7396 77.5039C64.7725 77.521 64.7849 77.5608 64.7683 77.5934C64.7514 77.6257 64.7114 77.6384 64.6791 77.6213L64.4433 77.4993C64.4107 77.4826 64.3987 77.4424 64.4153 77.41ZM63.9435 77.1659C63.9601 77.1331 63.9999 77.1206 64.0325 77.1373L64.269 77.2595C64.3011 77.2767 64.3131 77.3159 64.2969 77.3488C64.2803 77.3811 64.2396 77.3939 64.2075 77.3772L63.9719 77.2552C63.9393 77.2383 63.9268 77.1978 63.9435 77.1659ZM63.4721 76.9216C63.4888 76.8887 63.5285 76.8763 63.5611 76.8929L63.7974 77.0152C63.8293 77.0318 63.8422 77.0721 63.8251 77.1044C63.808 77.1368 63.7685 77.1495 63.7361 77.1326L63.5003 77.0103C63.4675 76.9935 63.4555 76.9532 63.4721 76.9216ZM63.0008 76.6765C63.0174 76.6439 63.0572 76.6317 63.0893 76.6486L63.3256 76.7702C63.3579 76.7873 63.3709 76.827 63.3538 76.8596C63.3371 76.892 63.2969 76.9049 63.2643 76.8881L63.0285 76.766C62.9969 76.7489 62.9841 76.7089 63.0008 76.6765ZM62.5292 76.4322C62.5463 76.3994 62.5858 76.3869 62.6184 76.4042L62.8542 76.5263C62.8863 76.5432 62.8998 76.5827 62.8822 76.6153C62.866 76.6476 62.8258 76.6606 62.7932 76.6435L62.5572 76.5214C62.5248 76.5045 62.5126 76.4646 62.5292 76.4322ZM62.0576 76.1874C62.0743 76.155 62.1142 76.1428 62.1471 76.1594L62.3826 76.2815C62.415 76.2981 62.4277 76.3379 62.4108 76.3705C62.3944 76.4028 62.354 76.4155 62.3216 76.3989L62.0863 76.2766C62.0534 76.2602 62.041 76.2197 62.0576 76.1874ZM61.586 75.9435C61.6034 75.9107 61.6427 75.8984 61.6753 75.9151L61.9113 76.0373C61.9436 76.054 61.9561 76.0938 61.939 76.1266C61.9224 76.1589 61.8824 76.1717 61.85 76.155L61.6142 76.0327C61.5819 76.0159 61.5694 75.9754 61.586 75.9435ZM61.1144 75.6987C61.1315 75.6661 61.1713 75.6541 61.2039 75.6707L61.4397 75.7925C61.4728 75.8097 61.4852 75.8494 61.4677 75.8822C61.4515 75.9146 61.4115 75.9273 61.3791 75.9107L61.1431 75.7881C61.1103 75.7713 61.098 75.7311 61.1144 75.6987ZM60.6429 75.4543C60.6602 75.4215 60.6995 75.4093 60.7325 75.4264L60.9683 75.5484C61.0009 75.5651 61.0134 75.6051 60.9968 75.6372C60.9801 75.6698 60.9399 75.6827 60.9073 75.6654L60.6715 75.5433C60.6394 75.5267 60.6267 75.4867 60.6429 75.4543ZM60.1717 75.2095C60.1884 75.1772 60.2281 75.1647 60.2612 75.1813L60.497 75.3036C60.5291 75.3203 60.5421 75.3605 60.5254 75.3929C60.5083 75.4252 60.4683 75.4379 60.436 75.4211L60.2002 75.2988C60.1676 75.2823 60.1549 75.2424 60.1717 75.2095ZM59.6999 74.9657C59.717 74.9331 59.757 74.9201 59.7894 74.9372L60.0252 75.0595C60.0578 75.0764 60.0707 75.1159 60.0536 75.1485C60.037 75.1809 59.9967 75.1938 59.9646 75.1772L59.7283 75.0546C59.6958 75.0375 59.6835 74.9976 59.6999 74.9657ZM59.2286 74.7208C59.2454 74.688 59.2852 74.676 59.318 74.6929L59.5536 74.8145C59.5859 74.8318 59.5984 74.8713 59.5825 74.9039C59.5658 74.9363 59.5254 74.9492 59.4928 74.9326L59.257 74.8101C59.2246 74.7932 59.2117 74.7532 59.2286 74.7208ZM58.7574 74.4765C58.7741 74.4437 58.8136 74.4314 58.8462 74.4481L59.0822 74.5701C59.1148 74.5872 59.1273 74.627 59.1104 74.6591C59.0938 74.6917 59.0533 74.7047 59.021 74.6876L58.7854 74.5655C58.753 74.5488 58.7399 74.5089 58.7574 74.4765Z" fill="#0081A7"/>
</svg>
