<svg width="172" height="172" viewBox="0 0 172 172" fill="none" xmlns="http://www.w3.org/2000/svg">
<path d="M85.5415 171.083C38.3742 171.083 0 132.71 0 85.5425C0 38.3733 38.3742 0 85.5415 0C132.71 0 171.084 38.3733 171.084 85.5425C171.084 132.71 132.709 171.083 85.5415 171.083ZM85.5415 4.96439C41.1111 4.96439 4.96392 41.1111 4.96392 85.5429C4.96392 129.973 41.1106 166.121 85.5415 166.121C129.973 166.121 166.121 129.974 166.121 85.5429C166.121 41.1111 129.973 4.96439 85.5415 4.96439Z" fill="#EEA08F"/>
<path d="M85.5415 140.994C54.9656 140.994 30.09 116.12 30.09 85.5428C30.09 54.9669 54.9656 30.0913 85.5415 30.0913C116.118 30.0913 140.994 54.9669 140.994 85.5428C140.994 116.12 116.118 140.994 85.5415 140.994ZM85.5415 35.0548C57.702 35.0548 35.0529 57.7029 35.0529 85.5424C35.0529 113.382 57.702 136.032 85.5415 136.032C113.381 136.032 136.031 113.382 136.031 85.5428C136.031 57.7034 113.381 35.0548 85.5415 35.0548Z" fill="#EEA08F"/>
<path d="M45.6306 23.9854L46.0774 24.5951C47.3637 26.3522 47.649 27.8683 46.8637 29.3048C48.715 28.8118 50.223 29.6942 51.5451 31.5002L52.5635 32.8915C54.4934 35.5272 54.1384 37.9609 51.4543 39.9266L47.2319 43.0176L34.7253 25.9346L38.7763 22.9689C41.5589 20.9316 43.7012 21.3497 45.6306 23.9854ZM39.1963 26.4097L42.502 30.9244L43.5514 30.156C44.5519 29.4234 44.8401 28.5373 43.8396 27.171L43.1432 26.2195C42.2496 24.9995 41.4421 24.766 40.4897 25.4628L39.1963 26.4097ZM44.2883 33.3652L48.1298 38.6125L49.6675 37.4868C50.5705 36.8257 50.7546 36.0536 49.8257 34.7847L48.7362 33.296C47.5746 31.7098 46.705 31.5968 45.4847 32.4904L44.2883 33.3652Z" fill="#0081A7"/>
<path d="M54.2519 19.5159C53.04 16.3529 54.0127 13.9065 57.0632 12.7375C60.1137 11.5684 62.472 12.737 63.6849 15.9L67.6252 26.18C68.8381 29.343 67.8649 31.7894 64.8149 32.9585C61.7644 34.1276 59.4055 32.959 58.1932 29.7959L54.2519 19.5159ZM61.3755 28.8025C61.9165 30.2145 62.7437 30.513 63.732 30.134C64.7207 29.755 65.136 28.98 64.595 27.568L60.5026 16.893C59.9616 15.481 59.1343 15.1825 58.1456 15.5615C57.1573 15.9405 56.7421 16.7155 57.2831 18.1275L61.3755 28.8025Z" fill="#0081A7"/>
<path d="M83.8475 7.53223L81.3446 18.0966L86.0646 28.5913L82.5711 28.919L79.0785 20.8307L77.1203 29.4299L74.0181 29.7208L76.706 18.5317L72.2826 8.61701L75.7159 8.29497L78.9438 15.8305L80.7754 7.82037L83.8475 7.53223Z" fill="#0081A7"/>
<path d="M93.9548 8.14941L97.2557 8.56798L94.5904 29.5739L91.2894 29.1548L93.9548 8.14941Z" fill="#0081A7"/>
<path d="M108.51 17.1893L103.272 31.6022L100.458 30.5796L107.689 10.6797L111.612 12.1053L110.496 25.1839L114.825 13.273L117.61 14.2853L110.379 34.1852L107.167 33.018L108.51 17.1893Z" fill="#0081A7"/>
<path d="M126.313 30.2012L130.108 32.9018L126.215 38.3738C124.25 41.1347 121.748 41.7298 119.086 39.8361C116.424 37.942 116.165 35.3821 118.13 32.6217L124.513 23.6491C126.477 20.8887 128.98 20.2931 131.642 22.1872C134.305 24.0809 134.563 26.6408 132.598 29.4017L131.406 31.0778L128.842 29.2539L130.157 27.4054C131.035 26.1728 130.826 25.3187 129.963 24.7052C129.1 24.0913 128.225 24.1741 127.348 25.4063L120.719 34.7234C119.842 35.9561 120.069 36.7852 120.931 37.3991C121.794 38.0131 122.652 37.9552 123.529 36.7226L125.792 33.5426L124.559 32.6659L126.313 30.2012Z" fill="#0081A7"/>
<path d="M54.5428 139.022L54.1304 139.656C52.9415 141.48 51.6246 142.283 50.0026 142.057C51.1185 143.614 50.8261 145.338 49.6043 147.213L48.6631 148.657C46.8801 151.395 44.478 151.924 41.6897 150.108L37.3049 147.252L48.8614 129.509L53.0687 132.25C55.9591 134.132 56.3258 136.284 54.5428 139.022ZM45.2939 141.084L41.7443 146.533L43.3409 147.573C44.2788 148.184 45.067 148.083 45.9248 146.765L46.9319 145.219C48.0049 143.571 47.8034 142.718 46.5359 141.892L45.2939 141.084ZM49.9989 133.86L46.9446 138.549L48.0341 139.259C49.0737 139.936 50.005 139.892 50.9288 138.473L51.5724 137.485C52.3982 136.218 52.3299 135.379 51.3417 134.735L49.9989 133.86Z" fill="#0081A7"/>
<path d="M59.93 141.98C61.1269 138.811 63.48 137.63 66.5362 138.783C69.5928 139.937 70.5787 142.379 69.3823 145.548L65.4933 155.849C64.2969 159.019 61.9437 160.199 58.8871 159.046C55.8315 157.892 54.8451 155.451 56.0419 152.281L59.93 141.98ZM59.0802 153.654C58.5458 155.069 58.9658 155.841 59.9559 156.215C60.9465 156.589 61.7719 156.286 62.3058 154.872L66.3441 144.175C66.8785 142.76 66.4585 141.987 65.4683 141.614C64.4777 141.24 63.6524 141.542 63.1184 142.957L59.0802 153.654Z" fill="#0081A7"/>
<path d="M86.9319 143.266L82.3672 153.117L84.8946 164.344L81.4062 163.966L79.6011 155.343L75.963 163.377L72.865 163.042L77.7362 152.616L75.3839 142.017L78.8125 142.388L80.4693 150.417L83.8649 142.934L86.9319 143.266Z" fill="#0081A7"/>
<path d="M91.4302 142.556L94.7142 142.024L98.099 162.925L94.8145 163.457L91.4302 142.556Z" fill="#0081A7"/>
<path d="M104.981 145.298L110.43 159.631L107.631 160.695L100.108 140.906L104.008 139.423L111.706 150.054L107.203 138.209L109.974 137.156L117.497 156.945L114.303 158.159L104.981 145.298Z" fill="#0081A7"/>
<path d="M124.053 139.708L127.932 137.131L131.648 142.722C133.523 145.543 133.184 148.092 130.463 149.9C127.743 151.708 125.261 151.034 123.387 148.213L117.294 139.044C115.419 136.223 115.758 133.673 118.479 131.865C121.199 130.058 123.681 130.732 125.556 133.553L126.694 135.266L124.074 137.007L122.819 135.118C121.982 133.859 121.11 133.749 120.228 134.334C119.347 134.921 119.111 135.767 119.947 137.027L126.275 146.548C127.111 147.807 127.967 147.892 128.849 147.306C129.73 146.72 129.983 145.898 129.146 144.639L126.986 141.39L125.728 142.227L124.053 139.708Z" fill="#0081A7"/>
<path d="M21.0021 85.3172C21.0021 87.6619 19.1004 89.5631 16.7561 89.5631C14.4114 89.5631 12.5098 87.6624 12.5098 85.3172C12.5098 82.973 14.4114 81.0713 16.7561 81.0713C19.1004 81.0713 21.0021 82.9734 21.0021 85.3172Z" fill="#EEA08F"/>
<path d="M154.924 85.3172C154.924 87.6619 153.022 89.5631 150.677 89.5631C148.333 89.5631 146.431 87.6624 146.431 85.3172C146.431 82.973 148.333 81.0713 150.677 81.0713C153.022 81.0713 154.924 82.9734 154.924 85.3172Z" fill="#EEA08F"/>
<path d="M43.4887 80.6154C46.9286 86.0501 54.2377 96.9017 54.2377 96.9017L55.6021 99.0962L59.6663 99.0887C62.399 98.9399 66.2404 98.478 70.3606 97.1922C74.5924 95.8734 78.2013 93.9002 80.5578 92.4194L83.4783 90.4038C82.7838 87.4565 82.3224 85.9187 83.209 84.6301C87.0208 79.0791 86.0453 71.8844 84.088 64.4557C82.7824 59.4993 80.1548 58.0035 78.5502 57.5567C77.3717 57.4672 76.1348 58.8119 75.624 59.6584C74.8325 60.9645 75.7474 62.7103 76.3773 64.0348C76.7196 63.7993 77.6217 63.3097 78.4047 64.0291C78.4047 64.0291 77.2224 63.7254 76.5873 64.491C76.5934 64.5056 76.6014 64.5211 76.6075 64.5357C76.9409 65.305 77.2112 66.1153 77.4682 66.928C78.0869 66.7175 79.4372 66.3851 80.2103 67.1554C80.2103 67.1554 78.8468 66.8517 77.6975 67.6559C77.8072 68.0043 77.9169 68.3513 78.0309 68.694C78.2517 69.3574 78.4504 70.0345 78.5878 70.72C78.6853 71.0689 78.9579 71.7709 79.6006 71.938C79.6006 71.938 79.1279 71.8928 78.7324 71.7144C78.7748 72.1815 78.7814 72.6504 78.7296 73.1236C78.6735 73.6405 77.8854 73.4541 77.9423 72.9414C77.9941 72.4597 77.9809 71.9762 77.9226 71.4941C77.4739 71.9282 76.9658 71.9187 76.9658 71.9187C77.4861 71.6857 77.7088 71.1174 77.7997 70.76C77.5304 69.4587 76.9969 68.1771 76.5821 66.9685C76.5445 66.8559 76.503 66.7448 76.4621 66.6342C74.7685 67.0024 73.7233 65.7076 73.7233 65.7076C74.551 66.3093 75.7511 66.1539 76.2455 66.0546C75.8542 65.0522 75.4107 64.0564 75.0505 63.0437C73.8108 62.5959 72.1691 63.0983 72.1691 63.0983C73.1846 62.4368 74.3377 62.4104 74.8462 62.4396C74.7775 62.2211 74.7144 62.0022 74.6569 61.7819C74.5703 61.4452 74.551 61.0822 74.5886 60.7112C74.2807 60.239 73.865 59.9941 73.865 59.9941C74.1903 59.9546 74.4851 60.0892 74.672 60.2032C74.8123 59.5953 75.0929 58.9866 75.4743 58.4526C75.3721 57.5232 74.5703 56.7162 74.5703 56.7162C75.2808 56.8914 75.688 57.5491 75.8773 57.9569C76.2427 57.5618 76.6669 57.2346 77.1259 57.0176C76.1212 52.7688 71.3188 52.8503 65.271 54.1469C59.0599 55.4789 48.955 60.4673 43.9807 64.3723C39.0667 68.2317 40.0503 75.1806 43.4887 80.6154ZM78.3162 58.1819C80.4608 57.89 82.1638 61.2409 82.1638 61.2409C80.3483 58.8886 78.3162 58.1819 78.3162 58.1819ZM52.732 59.9127C59.1215 56.4154 62.8891 54.9958 67.7052 54.226C74.4083 53.1544 76.0774 56.4691 76.0774 56.4691C74.7925 54.799 70.0626 54.2308 65.0365 55.4648C58.4337 57.0858 52.732 59.9127 52.732 59.9127Z" fill="#0081A7"/>
<path d="M85.0504 93.3411C85.8579 93.2125 86.5707 93.4724 86.735 93.9979C86.8989 94.5228 86.4591 95.141 85.7218 95.4951L85.0504 93.3411Z" fill="#0081A7"/>
<path d="M55.7109 99.4867L56.1121 100.772L59.9036 100.765C62.7277 100.611 66.6995 100.133 70.9582 98.8049C75.3298 97.4414 79.0625 95.4009 81.4962 93.8711L84.0175 92.1314L83.5994 90.7905C83.5994 90.7905 78.0257 95.2271 70.4826 97.5784C62.5888 100.04 55.7109 99.4867 55.7109 99.4867ZM83.323 91.6423L83.5396 91.4888C83.5848 91.4572 83.6464 91.469 83.6789 91.5175C83.7105 91.565 83.7001 91.6291 83.6549 91.6611L83.4383 91.8165C83.4294 91.8221 83.4209 91.8268 83.412 91.8292C83.371 91.8419 83.3249 91.8259 83.2994 91.7882C83.2674 91.7392 83.2783 91.6738 83.323 91.6423ZM82.468 92.251L82.896 91.9464C82.9407 91.9149 83.0024 91.9276 83.0348 91.9751C83.0659 92.0227 83.0556 92.0877 83.0108 92.1201L82.5838 92.4238C82.5744 92.4314 82.5664 92.4351 82.557 92.4384C82.5165 92.4502 82.4703 92.4342 82.4449 92.3956C82.4129 92.3485 82.4242 92.2826 82.468 92.251ZM81.6134 92.8589L82.0414 92.5556C82.0857 92.5232 82.1492 92.5368 82.1794 92.5839C82.2123 92.6324 82.202 92.6955 82.1572 92.7289L81.7297 93.0326C81.7203 93.0382 81.7123 93.0434 81.7024 93.0463C81.6614 93.0585 81.6153 93.043 81.5899 93.0043C81.5593 92.9563 81.5687 92.8914 81.6134 92.8589ZM80.7532 93.4493C80.8653 93.3777 80.975 93.308 81.0771 93.2416L81.1864 93.164C81.2306 93.1324 81.2942 93.1447 81.3257 93.1927C81.3573 93.2412 81.3469 93.3052 81.3022 93.3368L81.1901 93.4168C81.0833 93.4865 80.9731 93.5562 80.8606 93.6282C80.8535 93.6324 80.8464 93.6362 80.838 93.6386C80.7956 93.6517 80.748 93.6338 80.7231 93.5915C80.6934 93.542 80.7061 93.4789 80.7532 93.4493ZM79.8638 94.0001C80.0168 93.9074 80.1647 93.8165 80.3106 93.7275C80.3568 93.6988 80.4175 93.7148 80.4477 93.7647C80.4764 93.8146 80.4618 93.8773 80.4156 93.9065C80.2692 93.9968 80.1204 94.0887 79.9679 94.18C79.9613 94.1852 79.9538 94.188 79.9467 94.1904C79.9038 94.2031 79.8558 94.1852 79.8309 94.1414C79.8017 94.0905 79.8167 94.0279 79.8638 94.0001ZM78.9636 94.5289C79.1166 94.4418 79.2682 94.3537 79.4161 94.2676C79.4632 94.2398 79.5244 94.2572 79.5521 94.3081C79.5799 94.3584 79.5644 94.4211 79.5178 94.4488C79.3699 94.5359 79.2183 94.624 79.063 94.713C79.0568 94.7158 79.0521 94.7196 79.0446 94.721C79.0013 94.7342 78.9509 94.7144 78.9278 94.6701C78.9 94.6202 78.9156 94.5576 78.9636 94.5289ZM78.0116 95.1782C77.9857 95.1273 78.0031 95.0647 78.0511 95.0378C78.2065 94.9536 78.3586 94.8698 78.5083 94.7864C78.5563 94.7591 78.618 94.7789 78.6453 94.8293C78.6722 94.8806 78.6548 94.9432 78.6067 94.9705C78.457 95.0548 78.303 95.1386 78.1477 95.2233C78.142 95.2266 78.1368 95.229 78.1302 95.2309C78.0865 95.2445 78.0361 95.2238 78.0116 95.1782ZM77.0869 95.6645C77.061 95.6132 77.0794 95.551 77.1293 95.5256C77.2856 95.4451 77.4395 95.3646 77.5916 95.2846C77.6406 95.2591 77.6999 95.2799 77.7258 95.3307C77.7526 95.383 77.7352 95.4451 77.6858 95.4701C77.5332 95.5515 77.3783 95.6325 77.2206 95.7125C77.2164 95.7154 77.2112 95.7172 77.2065 95.7191C77.1608 95.7337 77.1095 95.7116 77.0869 95.6645ZM76.1504 96.1302C76.1255 96.0784 76.1452 96.0158 76.1952 95.9922C76.3538 95.915 76.5087 95.8392 76.6636 95.7624C76.7126 95.738 76.7714 95.7592 76.7973 95.8114C76.8223 95.8627 76.8025 95.9258 76.7536 95.9503C76.5982 96.028 76.4428 96.1047 76.2837 96.1815C76.2794 96.1838 76.2752 96.1857 76.27 96.1862C76.2243 96.2003 76.1726 96.1772 76.1504 96.1302ZM75.2027 96.5718C75.1796 96.5191 75.2012 96.4579 75.2516 96.4353C75.4108 96.3632 75.568 96.2898 75.7243 96.2168C75.7738 96.1933 75.8345 96.2173 75.858 96.27C75.8821 96.3218 75.8613 96.3839 75.8114 96.407C75.6546 96.4809 75.496 96.5544 75.3359 96.6264C75.3317 96.6278 75.3279 96.6297 75.3246 96.6306C75.277 96.6452 75.2248 96.6212 75.2027 96.5718ZM74.2459 96.9908C74.2229 96.9372 74.2469 96.8764 74.2963 96.8543C74.4573 96.787 74.6174 96.7173 74.7756 96.6481C74.8269 96.6241 74.8848 96.6514 74.907 96.7036C74.93 96.7573 74.907 96.8176 74.8575 96.8406C74.6979 96.9103 74.5378 96.9791 74.3759 97.0483C74.3735 97.0487 74.3707 97.0497 74.3679 97.0506C74.3199 97.0666 74.2662 97.0393 74.2459 96.9908ZM73.2789 97.3835C73.2581 97.3294 73.2817 97.2696 73.3321 97.2498C73.495 97.1853 73.656 97.1208 73.8165 97.0553C73.8665 97.0346 73.9248 97.061 73.946 97.1147C73.9672 97.1683 73.9437 97.2291 73.8933 97.2488C73.7337 97.3148 73.5712 97.3807 73.4074 97.4447C73.4055 97.4452 73.4036 97.4461 73.4013 97.4471C73.3518 97.4621 73.2982 97.4344 73.2789 97.3835ZM72.301 97.7517C72.2807 97.6971 72.3066 97.6373 72.3593 97.6194C72.5227 97.5591 72.6847 97.4989 72.8471 97.4381C72.8989 97.4165 72.9563 97.4471 72.9761 97.5007C72.9973 97.5549 72.9714 97.6147 72.9196 97.634C72.7562 97.6957 72.5933 97.7559 72.4285 97.8157C72.4276 97.8162 72.4262 97.8171 72.4238 97.8181C72.3749 97.8322 72.3188 97.8035 72.301 97.7517ZM71.3127 98.0912C71.2948 98.0356 71.3221 97.9782 71.3744 97.9598C71.5406 97.9052 71.7044 97.8496 71.8683 97.7926C71.9234 97.7719 71.9766 97.8044 71.9954 97.8595C72.0147 97.9141 71.9874 97.972 71.9356 97.9899C71.7717 98.0478 71.607 98.1039 71.4408 98.1589H71.4384C71.3861 98.1754 71.3311 98.1444 71.3127 98.0912ZM70.3169 98.4024C70.3004 98.3468 70.3329 98.2993 70.3823 98.2734C70.5137 98.2333 70.6465 98.1933 70.7797 98.1528L70.8795 98.1203C70.9323 98.1043 70.9892 98.1354 71.0062 98.19C71.0241 98.2456 70.9963 98.3035 70.9426 98.32L70.8419 98.3515C70.7081 98.393 70.5754 98.4339 70.4421 98.4735C70.3894 98.4885 70.3334 98.4575 70.3169 98.4024ZM69.3122 98.6858C69.2971 98.6312 69.3202 98.5803 69.3804 98.5587C69.5471 98.5135 69.7138 98.4669 69.8828 98.4193C69.9341 98.4043 69.9901 98.4372 70.0071 98.4923C70.0217 98.5479 69.9939 98.6039 69.9416 98.6199H69.9402C69.7712 98.6684 69.6031 98.7159 69.4355 98.7611C69.3832 98.7748 69.3263 98.7414 69.3122 98.6858ZM68.2999 98.9433C68.2853 98.8878 68.3192 98.8313 68.3705 98.8186C68.5386 98.7781 68.7071 98.7357 68.8752 98.6919C68.9284 98.6783 68.9835 98.7126 68.9991 98.7691C69.0132 98.8223 68.984 98.8774 68.9322 98.8934C68.9322 98.8934 68.9303 98.8934 68.9294 98.8944C68.7594 98.9386 68.5899 98.981 68.4209 99.0215C68.3686 99.0347 68.314 98.9998 68.2999 98.9433ZM67.2815 99.1764C67.2683 99.1185 67.3031 99.0639 67.3554 99.053C67.524 99.0163 67.693 98.9787 67.863 98.9386C67.9171 98.9259 67.9712 98.9612 67.9854 99.0187C67.9981 99.0719 67.9689 99.1246 67.9199 99.1397C67.9162 99.1402 67.9147 99.1411 67.9114 99.142C67.7405 99.1816 67.571 99.2197 67.4011 99.2555C67.3474 99.2673 67.2947 99.232 67.2815 99.1764ZM66.2574 99.3817C66.2461 99.3261 66.281 99.271 66.3351 99.2612C66.5032 99.2287 66.6736 99.1948 66.8455 99.1599C66.8987 99.1491 66.9533 99.1854 66.9641 99.2423C66.9764 99.2955 66.9467 99.3473 66.8987 99.3619C66.8949 99.3624 66.893 99.3643 66.8893 99.3643C66.7174 99.3991 66.5456 99.433 66.3747 99.4655C66.3219 99.4763 66.2687 99.4387 66.2574 99.3817ZM65.2287 99.5634C65.2183 99.5065 65.2532 99.4523 65.3078 99.4448C65.4782 99.4161 65.6491 99.3869 65.8219 99.3558C65.8756 99.3464 65.9288 99.385 65.9396 99.4415C65.9495 99.4937 65.9203 99.5446 65.8723 99.5587C65.8685 99.5597 65.8648 99.5601 65.8615 99.562C65.6877 99.5921 65.5154 99.6218 65.3445 99.651C65.2908 99.659 65.239 99.6204 65.2287 99.5634ZM64.1952 99.7202C64.1858 99.6632 64.2221 99.6119 64.2767 99.6039C64.4471 99.579 64.619 99.5531 64.7941 99.5267C64.8483 99.5192 64.9 99.5578 64.908 99.6147C64.9175 99.6665 64.8887 99.7146 64.8417 99.7292C64.837 99.7306 64.8322 99.7325 64.828 99.7325C64.6533 99.7593 64.4805 99.7847 64.3092 99.8092C64.2545 99.8167 64.2032 99.7781 64.1952 99.7202ZM63.157 99.8525C63.1495 99.7946 63.1876 99.7438 63.2427 99.7376C63.4132 99.7169 63.586 99.6967 63.7602 99.6727C63.8148 99.6661 63.8656 99.7066 63.8746 99.7635C63.8821 99.8139 63.8515 99.8619 63.8073 99.8751C63.8016 99.8775 63.7964 99.8784 63.7913 99.8789C63.6156 99.901 63.4428 99.9231 63.2715 99.9438C63.215 99.9509 63.1641 99.9095 63.157 99.8525ZM62.1175 99.9594C62.1104 99.9015 62.1481 99.8516 62.2046 99.8469C62.3745 99.8309 62.5478 99.8134 62.7234 99.7946C62.7794 99.7889 62.8289 99.8309 62.8355 99.8874C62.843 99.9387 62.8133 99.9839 62.7677 99.998C62.7616 99.9999 62.7564 100 62.7502 100.002C62.5742 100.021 62.4 100.038 62.2286 100.054C62.173 100.059 62.1231 100.018 62.1175 99.9594ZM61.0732 100.044C61.068 99.9862 61.1071 99.9363 61.1631 99.9325C61.3331 99.9208 61.5068 99.9071 61.6834 99.893C61.7384 99.8883 61.7884 99.9311 61.7926 99.9881C61.7982 100.038 61.7691 100.082 61.7253 100.096C61.7177 100.098 61.7126 100.1 61.705 100.1C61.5275 100.115 61.3519 100.128 61.1815 100.14C61.1283 100.143 61.0788 100.101 61.0732 100.044ZM60.0275 100.102C60.0237 100.045 60.0661 99.9971 60.1193 99.9928C60.2902 99.9858 60.463 99.9763 60.6414 99.9665C60.6965 99.9627 60.745 100.007 60.7492 100.064C60.7535 100.112 60.7238 100.156 60.681 100.169C60.6734 100.172 60.6664 100.173 60.6579 100.174C60.4795 100.183 60.3043 100.193 60.1339 100.201C60.0797 100.204 60.0308 100.159 60.0275 100.102ZM58.9794 100.095C58.9775 100.036 59.0227 99.9905 59.0773 99.9905L59.6009 99.9985C59.6569 99.9985 59.7021 100.046 59.7035 100.103C59.7035 100.15 59.6748 100.189 59.6353 100.201C59.6254 100.206 59.616 100.207 59.6056 100.207L59.0806 100.199C59.0251 100.198 58.9804 100.151 58.9794 100.095ZM57.9299 100.08C57.929 100.022 57.9733 99.9768 58.0279 99.9768L58.5519 99.9834C58.6075 99.9848 58.6527 100.031 58.6541 100.089C58.6541 100.135 58.6253 100.175 58.5849 100.188C58.5764 100.191 58.5665 100.192 58.5561 100.192L58.0321 100.185C57.9765 100.184 57.9309 100.138 57.9299 100.08ZM56.8809 100.066C56.88 100.01 56.9252 99.9632 56.9803 99.9632L57.5034 99.9702C57.5589 99.9716 57.6041 100.019 57.6051 100.077C57.6065 100.123 57.5768 100.162 57.5359 100.175C57.5279 100.178 57.5175 100.179 57.5071 100.179L56.9831 100.172C56.9271 100.17 56.8819 100.123 56.8809 100.066ZM56.0909 100.056C56.0899 99.9985 56.1351 99.9528 56.1884 99.9533L56.4548 99.9566C56.5099 99.957 56.5556 100.004 56.5561 100.062C56.557 100.109 56.5273 100.148 56.4878 100.16C56.4784 100.163 56.468 100.165 56.4581 100.165L56.1916 100.161C56.1375 100.16 56.0918 100.113 56.0909 100.056Z" fill="#0081A7"/>
<path d="M71.0259 99.3204C78.569 96.9682 84.178 92.6465 84.178 92.6465L85.1182 95.6631L68.0983 100.97C67.047 101.297 66.4603 102.415 66.7885 103.467L68.5456 109.102C68.8724 110.154 69.992 110.74 71.0434 110.413L88.0628 105.106L88.2817 105.809L60.3942 114.505L56.2896 101.341C56.2896 101.341 63.1325 101.782 71.0259 99.3204Z" fill="#0081A7"/>
<path d="M68.2236 103.663L69.5913 108.05C69.846 108.868 70.7166 109.326 71.5354 109.07L88.2464 103.859C89.0656 103.604 89.4639 102.752 89.2083 101.934L87.0849 95.1245C87.0849 95.1245 87.2741 96.0972 85.9549 96.5083L69.2443 101.718C68.4246 101.975 67.9679 102.844 68.2236 103.663ZM73.6974 101.281C73.6757 100.576 80.0479 99.5781 82.5739 98.6722C85.098 97.7654 86.9987 96.0652 86.9069 97.6368C86.8141 99.208 88.1729 100.663 88.0204 100.928C87.6767 101.521 86.599 100.164 85.7326 99.4161C84.8673 98.6689 73.7727 103.668 73.6974 101.281Z" fill="#0081A7"/>
<path d="M59.9323 115.902C60.0698 116.346 60.543 116.595 60.987 116.457L88.9023 107.752C89.3462 107.613 89.5948 107.141 89.455 106.697C89.3175 106.253 88.8453 106.006 88.4013 106.144L60.4865 114.848C60.0411 114.986 59.793 115.458 59.9323 115.902ZM88.8561 106.884C88.8326 106.813 88.8731 106.738 88.9446 106.715L89.2017 106.635C89.2723 106.614 89.3481 106.653 89.3707 106.724C89.3933 106.795 89.3542 106.871 89.2817 106.892L89.0251 106.973C88.9545 106.995 88.8782 106.954 88.8561 106.884ZM87.8231 107.207C87.801 107.136 87.8401 107.06 87.9116 107.038L88.4286 106.877C88.4988 106.854 88.575 106.894 88.5972 106.965C88.6193 107.035 88.5797 107.112 88.5082 107.134L87.9912 107.295C87.9206 107.317 87.8452 107.277 87.8231 107.207ZM86.7911 107.528C86.7685 107.457 86.8075 107.381 86.8791 107.359L87.3961 107.199C87.4662 107.177 87.542 107.217 87.5646 107.288C87.5868 107.358 87.5472 107.434 87.4756 107.456L86.9596 107.616C86.8881 107.639 86.8141 107.6 86.7911 107.528ZM85.7576 107.85C85.736 107.779 85.775 107.703 85.8466 107.681L86.3636 107.521C86.4337 107.498 86.51 107.538 86.5312 107.609C86.5542 107.68 86.5138 107.755 86.4427 107.777L85.9266 107.939C85.8555 107.96 85.7802 107.921 85.7576 107.85ZM84.7251 108.172C84.7015 108.101 84.742 108.025 84.8136 108.004L85.3306 107.842C85.4007 107.821 85.4775 107.86 85.4996 107.931C85.5208 108.002 85.4817 108.078 85.4101 108.099L84.8941 108.26C84.8225 108.283 84.7477 108.243 84.7251 108.172ZM83.6926 108.494C83.669 108.423 83.7095 108.348 83.7811 108.326L84.2971 108.164C84.3691 108.143 84.4449 108.182 84.4661 108.253C84.4883 108.325 84.4482 108.4 84.3771 108.422L83.8602 108.583C83.7896 108.605 83.7152 108.565 83.6926 108.494ZM82.6596 108.816C82.6374 108.745 82.677 108.669 82.7486 108.647L83.2651 108.486C83.3361 108.464 83.4119 108.504 83.4331 108.575C83.4557 108.646 83.4162 108.721 83.3451 108.743L82.8272 108.905C82.7566 108.927 82.6822 108.887 82.6596 108.816ZM81.627 109.138C81.6049 109.067 81.644 108.992 81.7156 108.97L82.2311 108.808C82.3032 108.786 82.379 108.825 82.4001 108.897C82.4227 108.967 82.3823 109.043 82.3116 109.066L81.7956 109.225C81.7245 109.248 81.6487 109.21 81.627 109.138ZM80.595 109.46C80.5724 109.388 80.611 109.313 80.683 109.291L81.1995 109.13C81.2711 109.108 81.3469 109.148 81.3681 109.219C81.3907 109.289 81.3507 109.365 81.2805 109.387L80.7636 109.548C80.6925 109.571 80.6162 109.531 80.595 109.46ZM79.562 109.782C79.5394 109.711 79.578 109.636 79.6505 109.613L80.1666 109.452C80.2381 109.43 80.313 109.469 80.3351 109.54C80.3577 109.612 80.3177 109.688 80.2466 109.709L79.7306 109.871C79.6595 109.892 79.5832 109.853 79.562 109.782ZM78.5295 110.104C78.5069 110.033 78.546 109.957 78.6171 109.935L79.1345 109.774C79.2042 109.752 79.2809 109.792 79.3021 109.863C79.3247 109.934 79.2847 110.01 79.2136 110.031L78.6976 110.193C78.6279 110.215 78.5516 110.175 78.5295 110.104ZM77.497 110.426C77.4744 110.355 77.5134 110.279 77.5845 110.257L78.101 110.097C78.1726 110.075 78.2475 110.114 78.2696 110.185C78.2922 110.255 78.2522 110.331 78.1806 110.354L77.6646 110.514C77.5944 110.537 77.5191 110.497 77.497 110.426ZM76.463 110.748C76.4409 110.677 76.4805 110.602 76.5515 110.579L77.068 110.419C77.1391 110.397 77.2145 110.437 77.2366 110.507C77.2597 110.578 77.2196 110.654 77.149 110.676L76.6316 110.837C76.5614 110.859 76.4852 110.818 76.463 110.748ZM75.4305 111.07C75.4089 110.999 75.4479 110.924 75.5195 110.902L76.0355 110.741C76.1061 110.719 76.1829 110.758 76.2041 110.829C76.2257 110.9 76.1867 110.976 76.1165 110.997L75.5991 111.158C75.5289 111.181 75.4536 111.141 75.4305 111.07ZM74.398 111.392C74.3754 111.32 74.4154 111.245 74.487 111.223L75.003 111.062C75.0741 111.04 75.1499 111.08 75.172 111.151C75.1942 111.221 75.1537 111.297 75.083 111.319L74.5665 111.48C74.4964 111.503 74.4206 111.464 74.398 111.392ZM73.3645 111.714C73.3429 111.643 73.3824 111.568 73.454 111.546L73.9709 111.384C74.0406 111.362 74.1169 111.401 74.1386 111.472C74.1602 111.543 74.1211 111.618 74.051 111.641L73.5331 111.803C73.4634 111.825 73.3871 111.785 73.3645 111.714ZM72.3325 112.036C72.3099 111.965 72.3499 111.889 72.4215 111.867L72.9375 111.706C73.0081 111.684 73.0844 111.724 73.106 111.794C73.1286 111.865 73.0886 111.94 73.0171 111.963L72.501 112.124C72.4309 112.146 72.3546 112.107 72.3325 112.036ZM71.3 112.358C71.2788 112.287 71.3174 112.212 71.3894 112.189L71.9054 112.028C71.9765 112.006 72.0523 112.046 72.0754 112.117C72.0966 112.187 72.0566 112.262 71.9864 112.285L71.4695 112.446C71.3974 112.469 71.3216 112.429 71.3 112.358ZM70.267 112.68C70.2458 112.609 70.2834 112.533 70.3555 112.512L70.8734 112.351C70.9435 112.328 71.0189 112.368 71.0415 112.439C71.0627 112.511 71.0236 112.586 70.9525 112.608L70.4365 112.769C70.3654 112.791 70.2891 112.751 70.267 112.68ZM69.2344 113.002C69.2133 112.931 69.2519 112.856 69.3234 112.833L69.8395 112.672C69.911 112.65 69.9868 112.69 70.0094 112.761C70.0306 112.832 69.9906 112.907 69.9195 112.929L69.4035 113.09C69.3328 113.113 69.2566 113.073 69.2344 113.002ZM68.2015 113.324C68.1803 113.252 68.2189 113.177 68.29 113.155L68.8069 112.994C68.8785 112.972 68.9543 113.012 68.976 113.083C68.9981 113.154 68.9581 113.229 68.8865 113.251L68.3705 113.412C68.2999 113.434 68.2236 113.395 68.2015 113.324ZM67.1689 113.646C67.1463 113.575 67.1864 113.5 67.2574 113.478L67.7754 113.316C67.846 113.295 67.9208 113.335 67.9434 113.406C67.9646 113.476 67.9255 113.553 67.8545 113.574L67.3384 113.736C67.2678 113.756 67.192 113.717 67.1689 113.646ZM66.1355 113.969C66.1143 113.897 66.1543 113.821 66.2254 113.799L66.7424 113.638C66.813 113.616 66.8883 113.656 66.9114 113.727C66.9326 113.797 66.893 113.873 66.8224 113.895L66.3045 114.056C66.2339 114.078 66.159 114.038 66.1355 113.969ZM65.1034 114.29C65.0822 114.219 65.1213 114.144 65.1924 114.121L65.7084 113.96C65.78 113.938 65.8549 113.977 65.8775 114.049C65.8996 114.12 65.86 114.195 65.7885 114.217L65.2724 114.378C65.2009 114.401 65.126 114.361 65.1034 114.29ZM64.0718 114.612C64.0488 114.541 64.0888 114.465 64.1604 114.443L64.6773 114.282C64.7479 114.259 64.8238 114.3 64.8454 114.37C64.8675 114.441 64.828 114.517 64.7569 114.539L64.239 114.7C64.1684 114.723 64.093 114.683 64.0718 114.612ZM63.0384 114.934C63.0162 114.863 63.0563 114.788 63.1274 114.765L63.6434 114.604C63.714 114.582 63.7908 114.622 63.8124 114.692C63.8336 114.764 63.795 114.839 63.7234 114.861L63.2065 115.022C63.1363 115.045 63.0605 115.006 63.0384 114.934ZM62.0059 115.256C61.9833 115.184 62.0233 115.109 62.0944 115.087L62.6104 114.927C62.681 114.904 62.7568 114.944 62.7794 115.015C62.802 115.086 62.762 115.162 62.6904 115.184L62.1744 115.345C62.1033 115.367 62.0275 115.327 62.0059 115.256ZM60.9733 115.579C60.9507 115.507 60.9908 115.431 61.0618 115.41L61.5779 115.248C61.6485 115.227 61.7243 115.266 61.7469 115.337C61.7681 115.409 61.7295 115.484 61.6579 115.506L61.1424 115.667C61.0713 115.689 60.9955 115.649 60.9733 115.579ZM60.1993 115.82C60.1762 115.748 60.2167 115.673 60.2878 115.651L60.5449 115.571C60.6155 115.549 60.6913 115.588 60.7139 115.659C60.7365 115.729 60.6965 115.805 60.6249 115.827L60.3683 115.908C60.2972 115.93 60.2224 115.89 60.1993 115.82Z" fill="#0081A7"/>
<path d="M108.928 111.644C109.591 112.121 109.916 112.807 109.662 113.295C109.41 113.784 108.661 113.913 107.889 113.646L108.928 111.644Z" fill="#0081A7"/>
<path d="M96.7528 94.1781C97.5551 92.6287 99.461 92.0255 101.009 92.8288C102.556 93.6306 103.161 95.5369 102.359 97.0855L98.2703 104.97C97.5066 104.637 96.7349 104.273 95.9628 103.873C96.1779 103.985 96.3931 104.093 96.6083 104.199L100.828 96.0614C101.164 95.4117 100.912 94.6104 100.261 94.2728C99.6098 93.9361 98.8089 94.1904 98.4723 94.8401L94.2716 102.942C94.5503 103.103 94.8366 103.263 95.1247 103.422V103.424C95.1497 103.438 95.176 103.452 95.201 103.466C95.1756 103.452 95.152 103.436 95.1247 103.422L99.3748 95.2262C99.4634 95.0543 99.6743 94.987 99.8461 95.076C100.018 95.1659 100.086 95.3759 99.9959 95.5482L95.741 103.754C95.8154 103.793 95.8884 103.833 95.9628 103.872C94.8027 103.27 93.7146 102.634 92.7032 101.987L96.7528 94.1781Z" fill="#0081A7"/>
<path d="M99.8866 102.849C99.8546 102.909 99.7802 102.933 99.7194 102.902C99.6587 102.87 99.6356 102.795 99.6672 102.735L99.8955 102.294C99.9261 102.233 100.001 102.209 100.062 102.241C100.122 102.272 100.146 102.347 100.114 102.408L99.8866 102.849Z" fill="#0081A7"/>
<path d="M102.728 94.667C102.679 94.5159 102.618 94.3657 102.549 94.2225C102.519 94.1613 102.545 94.0879 102.606 94.0587C102.666 94.0285 102.741 94.0535 102.772 94.1147C102.846 94.2687 102.911 94.4287 102.963 94.5921C102.984 94.6571 102.948 94.7268 102.883 94.748C102.85 94.7579 102.816 94.7536 102.788 94.7395C102.76 94.7249 102.737 94.7004 102.728 94.667Z" fill="#0081A7"/>
<path d="M98.9723 104.612C98.9407 104.673 98.8659 104.697 98.8051 104.665C98.7444 104.634 98.7204 104.559 98.7519 104.499L98.9798 104.058C99.0128 103.997 99.0872 103.974 99.147 104.005C99.2082 104.036 99.2317 104.111 99.2006 104.171L98.9723 104.612Z" fill="#0081A7"/>
<path d="M99.429 103.73C99.3979 103.791 99.3236 103.815 99.2633 103.783C99.2016 103.752 99.1776 103.677 99.2096 103.617L99.4389 103.175C99.47 103.115 99.5444 103.091 99.6046 103.123C99.6663 103.154 99.6889 103.229 99.6583 103.289L99.429 103.73Z" fill="#0081A7"/>
<path d="M100.401 92.4464C100.391 92.4459 100.384 92.4417 100.374 92.4379C100.325 92.4115 100.298 92.3532 100.312 92.2948C100.33 92.2298 100.399 92.1902 100.465 92.2086C100.628 92.2529 100.792 92.3098 100.949 92.3781C101.015 92.4054 101.041 92.4779 101.013 92.5405C100.986 92.6032 100.914 92.6324 100.851 92.6046C100.705 92.5415 100.553 92.4892 100.401 92.4464Z" fill="#0081A7"/>
<path d="M101.689 93.1165C101.68 93.1128 101.674 93.1081 101.667 93.1024C101.544 93.0007 101.413 92.908 101.277 92.8251C101.218 92.7893 101.2 92.7126 101.236 92.6556C101.271 92.5968 101.349 92.5812 101.405 92.6142C101.552 92.7027 101.694 92.8034 101.824 92.9113C101.876 92.9546 101.884 93.0323 101.841 93.0855C101.802 93.1321 101.739 93.1429 101.689 93.1165Z" fill="#0081A7"/>
<path d="M102.354 93.8493C102.337 93.8399 102.322 93.8263 102.31 93.8088C102.221 93.6765 102.121 93.5504 102.014 93.4331C101.968 93.3818 101.971 93.3041 102.021 93.258C102.073 93.2118 102.151 93.2151 102.196 93.2669C102.31 93.3926 102.418 93.5282 102.513 93.67C102.553 93.7269 102.538 93.8037 102.481 93.8413C102.442 93.8682 102.394 93.8696 102.354 93.8493Z" fill="#0081A7"/>
<path d="M102.172 98.4405C102.141 98.5007 102.067 98.5247 102.005 98.4927C101.945 98.4617 101.921 98.3873 101.952 98.327L102.181 97.8854C102.212 97.8256 102.287 97.8016 102.348 97.8322C102.408 97.8646 102.432 97.9381 102.4 97.9993L102.172 98.4405Z" fill="#0081A7"/>
<path d="M102.956 95.7136C102.918 95.6939 102.89 95.6543 102.889 95.6082C102.884 95.449 102.868 95.2885 102.84 95.1312C102.83 95.0644 102.875 95.0003 102.942 94.9886C103.01 94.9773 103.074 95.022 103.085 95.0893C103.113 95.2588 103.131 95.4307 103.135 95.6011C103.138 95.6684 103.084 95.7254 103.015 95.7282C102.994 95.7282 102.974 95.7235 102.956 95.7136Z" fill="#0081A7"/>
<path d="M103.004 95.9774C103.073 95.9845 103.121 96.0462 103.113 96.1144C103.093 96.2835 103.062 96.4534 103.018 96.6196C103 96.6846 102.933 96.7242 102.867 96.7067C102.858 96.7044 102.849 96.7011 102.842 96.6969C102.792 96.6705 102.764 96.6121 102.779 96.5561C102.819 96.4021 102.849 96.2439 102.868 96.0857C102.875 96.0175 102.936 95.9694 103.004 95.9774Z" fill="#0081A7"/>
<path d="M99.4535 92.3315C99.4323 92.3319 99.4111 92.3263 99.3937 92.3169C99.3551 92.2971 99.3278 92.2561 99.3273 92.21C99.3254 92.1417 99.3796 92.0857 99.4478 92.0838C99.6188 92.0801 99.7915 92.0895 99.9601 92.1092C100.028 92.1182 100.076 92.1799 100.069 92.2472C100.059 92.3145 99.9982 92.363 99.9309 92.355C99.7732 92.3362 99.6126 92.3287 99.4535 92.3315Z" fill="#0081A7"/>
<path d="M101.258 100.204C101.227 100.265 101.151 100.288 101.091 100.257C101.032 100.225 101.007 100.15 101.039 100.089L101.267 99.6497C101.298 99.5885 101.373 99.565 101.434 99.5965C101.495 99.6281 101.519 99.7015 101.487 99.7627L101.258 100.204Z" fill="#0081A7"/>
<path d="M100.8 101.086C100.769 101.146 100.695 101.17 100.633 101.138C100.574 101.107 100.549 101.033 100.581 100.972L100.81 100.531C100.841 100.47 100.915 100.447 100.977 100.478C101.037 100.509 101.061 100.584 101.029 100.645L100.8 101.086Z" fill="#0081A7"/>
<path d="M100.343 101.968C100.312 102.029 100.237 102.052 100.176 102.021C100.115 101.989 100.092 101.914 100.123 101.854L100.353 101.412C100.384 101.352 100.458 101.329 100.519 101.36C100.579 101.391 100.603 101.466 100.572 101.526L100.343 101.968Z" fill="#0081A7"/>
<path d="M101.715 99.3221C101.683 99.3829 101.608 99.4069 101.548 99.3749C101.487 99.3433 101.464 99.2689 101.495 99.2082L101.724 98.7675C101.755 98.7072 101.831 98.6832 101.891 98.7143C101.953 98.7458 101.975 98.8202 101.944 98.8805L101.715 99.3221Z" fill="#0081A7"/>
<path d="M102.851 97.1048C102.816 97.1919 102.775 97.2785 102.73 97.3642L102.629 97.5591C102.598 97.6194 102.523 97.6425 102.462 97.6114C102.402 97.5799 102.378 97.5059 102.41 97.4452L102.511 97.2503C102.552 97.1702 102.59 97.0893 102.625 97.0087C102.65 96.9461 102.723 96.9165 102.786 96.9438C102.85 96.9687 102.88 97.0412 102.851 97.1048Z" fill="#0081A7"/>
<path d="M93.2263 100.522C93.1943 100.583 93.1204 100.607 93.0596 100.575C92.998 100.544 92.9744 100.469 93.0055 100.409L93.2343 99.9671C93.2654 99.9068 93.3412 99.8823 93.4015 99.9148C93.4622 99.9459 93.4853 100.021 93.4537 100.081L93.2263 100.522Z" fill="#0081A7"/>
<path d="M92.7682 101.404C92.7376 101.465 92.6623 101.488 92.6015 101.458C92.5413 101.426 92.5177 101.351 92.5497 101.291L92.7785 100.85C92.8091 100.789 92.8845 100.765 92.9443 100.797C93.0055 100.828 93.0295 100.902 92.9975 100.962L92.7682 101.404Z" fill="#0081A7"/>
<path d="M98.4176 92.4775C98.3884 92.4634 98.3667 92.438 98.3564 92.4055C98.3361 92.3405 98.3719 92.2703 98.4373 92.2506C98.6003 92.1983 98.7683 92.1597 98.9378 92.131C99.0052 92.1201 99.0673 92.1663 99.0791 92.2331C99.0894 92.3 99.0452 92.364 98.9769 92.3749C98.8192 92.4012 98.6633 92.4384 98.5117 92.486C98.4788 92.4959 98.4444 92.4916 98.4176 92.4775Z" fill="#0081A7"/>
<path d="M93.6835 99.6404C93.6519 99.7016 93.5775 99.7252 93.5177 99.6936C93.4565 99.6621 93.432 99.5882 93.464 99.5265L93.6929 99.0867C93.7244 99.0255 93.7979 99.002 93.8595 99.0335C93.9203 99.0651 93.9433 99.139 93.9113 99.2002L93.6835 99.6404Z" fill="#0081A7"/>
<path d="M97.9605 92.4384C98.0212 92.4082 98.0946 92.4341 98.1243 92.4963C98.154 92.5579 98.1281 92.6319 98.0655 92.6611C97.9223 92.7298 97.7825 92.8094 97.6507 92.8979C97.6121 92.9233 97.5636 92.9242 97.5245 92.9045C97.5071 92.8955 97.4915 92.8814 97.4779 92.8635C97.4407 92.8061 97.4562 92.7303 97.5127 92.6917C97.6554 92.597 97.8042 92.5123 97.9605 92.4384Z" fill="#0081A7"/>
<path d="M96.6195 93.7524C96.6775 93.7887 96.6944 93.865 96.66 93.9229C96.6144 93.9959 96.571 94.0712 96.5306 94.1489L96.4265 94.3504C96.395 94.4111 96.3206 94.4351 96.2598 94.4036C96.1996 94.372 96.1765 94.2972 96.2071 94.2369L96.3116 94.0359C96.354 93.9525 96.4011 93.8716 96.45 93.7929C96.4854 93.7345 96.5588 93.7152 96.6195 93.7524Z" fill="#0081A7"/>
<path d="M97.1078 93.0066C97.1573 92.9614 97.2354 92.9651 97.2816 93.016C97.3263 93.0668 97.3225 93.145 97.2717 93.1911C97.1526 93.2966 97.0415 93.4124 96.9393 93.5344C96.8997 93.5805 96.8371 93.5913 96.7877 93.565C96.7792 93.5612 96.7721 93.5556 96.7646 93.5509C96.7123 93.5066 96.7048 93.428 96.7495 93.3757C96.8588 93.2453 96.9798 93.121 97.1078 93.0066Z" fill="#0081A7"/>
<path d="M95.8022 95.2852C95.7415 95.2537 95.718 95.1788 95.749 95.1181L95.9788 94.6774C96.0099 94.6171 96.0847 94.5941 96.145 94.6251C96.2062 94.6562 96.2293 94.7306 96.1977 94.7918L95.9699 95.2325C95.9378 95.2923 95.8635 95.3168 95.8022 95.2852Z" fill="#0081A7"/>
<path d="M95.5112 96.1144C95.4801 96.1751 95.4062 96.1987 95.3441 96.1667C95.2838 96.1356 95.2603 96.0612 95.2923 96L95.5202 95.5593C95.5517 95.4986 95.6261 95.4745 95.6868 95.5061C95.7476 95.5376 95.7716 95.6125 95.7391 95.6732L95.5112 96.1144Z" fill="#0081A7"/>
<path d="M95.0536 96.9958C95.0239 97.0566 94.9495 97.0806 94.8874 97.049C94.8271 97.0175 94.8036 96.9436 94.8346 96.8823L95.0635 96.4407C95.0945 96.38 95.1694 96.3569 95.2301 96.3875C95.2909 96.4191 95.3149 96.4939 95.2833 96.5551L95.0536 96.9958Z" fill="#0081A7"/>
<path d="M94.1402 98.7579C94.1086 98.8186 94.0342 98.8426 93.9735 98.812C93.9137 98.7795 93.8888 98.7056 93.9208 98.6449L94.1486 98.2042C94.1811 98.143 94.2565 98.1199 94.3158 98.151C94.3765 98.1825 94.4005 98.2574 94.369 98.3181L94.1402 98.7579Z" fill="#0081A7"/>
<path d="M94.5974 97.8772C94.5663 97.9379 94.4914 97.962 94.4307 97.9309C94.3704 97.8993 94.3464 97.824 94.3775 97.7637L94.6054 97.323C94.6383 97.2618 94.7132 97.2383 94.7735 97.2698C94.8342 97.3009 94.8573 97.3758 94.8257 97.4365L94.5974 97.8772Z" fill="#0081A7"/>
<path d="M98.7345 105.168C98.7788 105.188 98.8244 105.206 98.8687 105.225V105.227C98.8244 105.208 98.7788 105.188 98.7345 105.168Z" fill="#0081A7"/>
<path d="M90.1217 100.204C90.7582 100.675 91.4343 101.154 92.1566 101.632L96.192 93.849C97.16 91.9827 99.4572 91.2543 101.324 92.2228C103.189 93.1903 103.918 95.487 102.95 97.3538L98.8682 105.225C101.777 106.441 104.524 107.2 106.566 107.656L110.058 108.279C111.639 105.697 112.394 104.281 113.93 103.988C120.545 102.726 124.915 96.9277 128.753 90.2736C131.312 85.8327 130.497 82.9221 129.672 81.4748C128.897 80.5821 127.073 80.6673 126.113 80.9088C124.633 81.2803 124.055 83.1646 123.57 84.5483C123.977 84.6222 124.963 84.908 125.013 85.9707C125.013 85.9707 124.387 84.924 123.397 85.0196C123.392 85.0347 123.385 85.0512 123.38 85.0658C123.075 85.8473 122.698 86.6124 122.309 87.3709C122.896 87.6562 124.09 88.3705 124.097 89.46C124.097 89.46 123.341 88.2862 121.96 88.0494C121.792 88.3742 121.626 88.6986 121.466 89.0221C121.156 89.6483 120.821 90.2693 120.435 90.8531C120.26 91.1691 119.959 91.8593 120.298 92.4313C120.298 92.4313 119.993 92.0679 119.838 91.6616C119.541 92.0231 119.214 92.3621 118.845 92.6611C118.442 92.9893 118.012 92.3019 118.413 91.977C120.003 90.6907 120.785 88.5673 121.651 86.7777C121.828 86.4128 121.993 86.0389 122.152 85.6628C118.582 89.3418 113.27 91.1992 108.191 90.105C103.018 88.9906 98.0188 85.3459 96.1332 80.3156C94.8907 76.9991 95.1972 73.3271 96.2231 69.9744C96.1854 69.9508 96.1209 69.9085 96.0677 69.8797C95.8794 69.7842 95.6741 69.7465 95.4632 69.7587C94.3647 69.8214 93.9175 71.6223 93.7079 72.4184C93.5742 72.9208 92.7828 72.7541 92.916 72.2503C93.2343 71.045 93.7687 69.3251 95.1656 68.9922C95.6049 68.8868 96.0795 68.9724 96.4788 69.1857C96.6026 68.8284 96.7302 68.4734 96.8691 68.1254C97.0593 67.6395 97.7768 68.0171 97.5852 68.4974C96.168 72.0846 95.6021 76.0749 96.8102 79.8033C98.4501 84.8685 103.654 88.3017 108.666 89.3804C114.194 90.5706 120.214 87.6247 123.233 83.0567C123.249 83.0313 123.267 83.0097 123.286 82.9903C123.486 82.5614 123.698 82.1424 123.933 81.7384C124.802 80.2468 127.278 79.4629 129.041 80.0891C131.315 76.363 127.846 73.0427 122.637 69.7083C117.287 66.284 106.597 62.7175 100.315 61.9915C94.1072 61.2744 89.9154 66.9046 88.5345 73.1863C88.3255 74.1454 88.0882 75.2599 87.8391 76.4581C88.4394 76.3348 89.5835 76.1968 91.1241 76.4567C91.1241 76.4567 88.8928 76.4266 87.5477 77.8777C87.542 77.9078 87.5354 77.9384 87.5298 77.9685C88.0557 77.8701 89.0585 77.8583 89.7328 78.9431C89.7328 78.9431 88.2242 78.074 87.3546 78.8259C86.4516 83.2776 85.4986 88.2127 85.0203 90.6992C85.0744 90.872 85.129 91.0457 85.1827 91.2185C85.6338 91.2774 86.0721 91.4148 86.4874 91.6121C87.2666 91.9841 87.712 92.6592 88.01 93.4375C88.0877 93.6395 88.1239 93.8561 88.1334 94.0769C88.2271 94.2228 88.3052 94.3834 88.3622 94.5623C88.8514 96.1358 89.342 97.7084 89.8321 99.2804C89.9272 99.5804 90.027 99.8906 90.1217 100.204ZM108.746 65.0444C115.747 67.0557 119.424 68.6989 123.386 71.5399C128.903 75.4957 127.756 79.0255 127.756 79.0255C128.018 76.9346 125.057 73.2033 120.618 70.5427C114.787 67.0482 108.746 65.0444 108.746 65.0444ZM98.4972 80.4582C98.4972 80.4582 100.993 85.917 106.268 87.8436C106.268 87.8436 99.5109 86.3793 98.4972 80.4582ZM96.12 89.3813C96.12 89.3813 103.538 88.6878 106.648 94.8396C106.648 94.8396 103.327 90.7048 96.12 89.3813Z" fill="#0081A7"/>
<path d="M90.5628 102.908C91.915 103.83 93.4221 104.754 95.07 105.609C99.1356 107.717 103.222 108.893 106.028 109.52L109.043 110.057L109.69 108.811C109.69 108.811 102.608 108.041 95.5941 104.404C93.65 103.395 91.908 102.288 90.3933 101.204C90.4602 101.494 90.5143 101.784 90.5449 102.072C90.5656 102.072 90.5868 102.075 90.6047 102.088C90.745 102.188 90.8881 102.287 91.0327 102.387C91.0784 102.418 91.0878 102.482 91.0558 102.531C91.0256 102.575 90.9701 102.589 90.9268 102.566C90.922 102.565 90.9197 102.562 90.9169 102.561C90.7982 102.479 90.6791 102.397 90.5642 102.314C90.5769 102.514 90.5769 102.713 90.5628 102.908ZM108.777 109.308C108.787 109.251 108.84 109.213 108.894 109.221L109.157 109.264C109.212 109.274 109.247 109.326 109.235 109.382C109.225 109.439 109.173 109.478 109.118 109.469L108.855 109.426C108.845 109.425 108.835 109.42 108.827 109.416C108.79 109.397 108.768 109.354 108.777 109.308ZM107.741 109.139C107.752 109.082 107.805 109.044 107.86 109.053L108.377 109.137C108.432 109.146 108.465 109.2 108.455 109.256C108.445 109.312 108.392 109.351 108.338 109.341L107.82 109.257C107.809 109.256 107.8 109.252 107.792 109.249C107.754 109.229 107.733 109.185 107.741 109.139ZM106.706 108.97C106.717 108.914 106.77 108.875 106.823 108.885L107.341 108.969C107.396 108.977 107.431 109.031 107.42 109.087C107.41 109.143 107.357 109.181 107.303 109.172L106.785 109.088C106.774 109.087 106.765 109.083 106.756 109.079C106.718 109.06 106.697 109.016 106.706 108.97ZM105.675 108.777C105.688 108.721 105.744 108.686 105.798 108.698C105.927 108.726 106.054 108.753 106.174 108.778L106.305 108.799C106.36 108.808 106.395 108.861 106.385 108.918C106.373 108.975 106.321 109.013 106.266 109.003L106.13 108.982C106.004 108.955 105.878 108.928 105.747 108.901C105.74 108.898 105.732 108.895 105.725 108.892C105.685 108.871 105.664 108.824 105.675 108.777ZM104.656 108.54C104.67 108.484 104.725 108.45 104.779 108.462C104.951 108.504 105.121 108.545 105.287 108.583C105.34 108.596 105.373 108.65 105.358 108.707C105.344 108.762 105.289 108.797 105.236 108.785C105.068 108.747 104.898 108.707 104.724 108.665C104.717 108.662 104.71 108.66 104.704 108.657C104.663 108.636 104.643 108.588 104.656 108.54ZM103.641 108.28C103.657 108.224 103.713 108.191 103.767 108.205C103.937 108.251 104.107 108.295 104.272 108.337C104.325 108.351 104.356 108.407 104.341 108.462C104.325 108.518 104.27 108.552 104.215 108.539C104.05 108.496 103.881 108.452 103.709 108.406C103.701 108.405 103.695 108.403 103.688 108.398C103.649 108.377 103.628 108.328 103.641 108.28ZM102.634 107.997C102.65 107.942 102.707 107.91 102.761 107.925C102.93 107.974 103.097 108.022 103.262 108.068C103.315 108.082 103.345 108.14 103.329 108.195C103.312 108.251 103.256 108.282 103.202 108.268C103.036 108.222 102.868 108.174 102.699 108.125C102.693 108.123 102.687 108.121 102.681 108.118C102.64 108.096 102.619 108.046 102.634 107.997ZM101.633 107.691C101.652 107.637 101.708 107.605 101.761 107.622C101.928 107.676 102.094 107.727 102.259 107.777C102.313 107.793 102.34 107.85 102.324 107.904C102.305 107.96 102.248 107.992 102.196 107.975C102.03 107.926 101.865 107.874 101.695 107.821C101.69 107.819 101.685 107.817 101.68 107.814C101.638 107.793 101.616 107.74 101.633 107.691ZM100.641 107.363C100.66 107.308 100.719 107.279 100.77 107.297C100.937 107.353 101.101 107.408 101.265 107.463C101.317 107.48 101.345 107.537 101.325 107.593C101.307 107.646 101.249 107.677 101.198 107.659C101.032 107.605 100.867 107.55 100.7 107.493C100.696 107.491 100.691 107.49 100.687 107.488C100.644 107.465 100.623 107.412 100.641 107.363ZM99.6568 107.009C99.6771 106.957 99.7359 106.929 99.7872 106.947C99.952 107.007 100.115 107.067 100.278 107.124C100.33 107.143 100.354 107.202 100.335 107.256C100.315 107.31 100.257 107.338 100.206 107.32C100.042 107.263 99.8781 107.202 99.7124 107.142C99.7091 107.14 99.7048 107.139 99.7015 107.137C99.6582 107.114 99.638 107.06 99.6568 107.009ZM98.6831 106.633C98.7043 106.58 98.7632 106.553 98.8136 106.574C98.9755 106.639 99.1389 106.702 99.2999 106.764C99.3522 106.783 99.3753 106.843 99.3536 106.896C99.3324 106.95 99.2736 106.977 99.2222 106.958C99.0612 106.895 98.8978 106.832 98.7345 106.768C98.7321 106.765 98.7288 106.765 98.7265 106.763C98.6822 106.741 98.662 106.684 98.6831 106.633ZM97.7184 106.233C97.7415 106.179 97.8008 106.154 97.8512 106.176C98.0122 106.245 98.1723 106.312 98.331 106.378C98.3809 106.4 98.4049 106.459 98.3823 106.512C98.3602 106.565 98.3004 106.591 98.25 106.571C98.0899 106.504 97.9289 106.436 97.7683 106.367C97.7655 106.366 97.7636 106.365 97.7613 106.364C97.7151 106.34 97.6963 106.283 97.7184 106.233ZM96.765 105.806C96.79 105.753 96.8497 105.73 96.9001 105.753C97.0574 105.826 97.217 105.897 97.3738 105.967C97.4251 105.989 97.4453 106.05 97.4218 106.103C97.3983 106.157 97.338 106.181 97.2886 106.158C97.1294 106.088 96.9712 106.015 96.8111 105.942C96.8097 105.942 96.8074 105.94 96.8074 105.94C96.7593 105.915 96.74 105.856 96.765 105.806ZM95.8238 105.353C95.8507 105.3 95.9104 105.279 95.9599 105.303C96.1157 105.38 96.2716 105.457 96.4279 105.531C96.482 105.555 96.4962 105.616 96.4721 105.668C96.4472 105.72 96.3865 105.743 96.337 105.719C96.1798 105.645 96.023 105.569 95.8662 105.49L95.8652 105.489C95.8168 105.463 95.7993 105.403 95.8238 105.353ZM94.8982 104.872C94.925 104.821 94.981 104.811 95.0342 104.826C95.1557 104.891 95.2791 104.956 95.402 105.02L95.4957 105.068C95.5441 105.093 95.562 105.155 95.5357 105.206C95.5093 105.258 95.4486 105.279 95.4001 105.253L95.3054 105.205C95.1811 105.141 95.0592 105.075 94.9358 105.011C94.8873 104.985 94.8709 104.923 94.8982 104.872ZM93.9838 104.367C94.0116 104.317 94.0639 104.298 94.1208 104.324C94.2715 104.41 94.4231 104.494 94.5761 104.578C94.6242 104.605 94.6406 104.667 94.6129 104.717C94.586 104.767 94.5262 104.787 94.4777 104.763L94.4758 104.762C94.3224 104.677 94.1693 104.592 94.0187 104.507C93.9711 104.48 93.9561 104.417 93.9838 104.367ZM93.0836 103.837C93.1133 103.788 93.1754 103.771 93.2225 103.799C93.3699 103.887 93.5187 103.976 93.6688 104.065C93.7173 104.092 93.7319 104.154 93.7027 104.205C93.6745 104.254 93.6156 104.272 93.569 104.248C93.5676 104.248 93.5667 104.247 93.5643 104.246C93.4141 104.157 93.2621 104.067 93.1147 103.979C93.0685 103.95 93.0544 103.888 93.0836 103.837ZM92.1961 103.286C92.2281 103.237 92.2898 103.222 92.3359 103.251C92.4814 103.344 92.6278 103.436 92.7766 103.528C92.8237 103.556 92.8374 103.62 92.8068 103.669C92.779 103.717 92.7201 103.733 92.6749 103.71C92.6726 103.708 92.6702 103.707 92.6693 103.706C92.5191 103.615 92.3708 103.521 92.2253 103.427C92.1787 103.399 92.166 103.336 92.1961 103.286ZM91.3237 102.713C91.3557 102.664 91.4178 102.65 91.4635 102.68C91.6071 102.776 91.7516 102.873 91.8976 102.968C91.9447 102.998 91.9555 103.062 91.9249 103.11C91.8957 103.157 91.8387 103.172 91.7945 103.149C91.7907 103.148 91.7874 103.146 91.786 103.143C91.6382 103.048 91.4932 102.951 91.3496 102.855C91.3034 102.824 91.2916 102.761 91.3237 102.713Z" fill="#0081A7"/>
<path d="M90.0289 104.996C89.9601 104.91 89.8872 104.826 89.8099 104.749C90.156 104.357 90.3646 103.931 90.4747 103.483C91.7657 104.348 93.1966 105.215 94.7555 106.024C101.769 109.661 108.796 110.536 108.796 110.536L107.341 113.341L91.5148 105.135C91.0374 104.889 90.5068 104.853 90.0289 104.996Z" fill="#0081A7"/>
<path d="M86.493 110.489L86.1093 111.228C85.6017 112.205 85.9836 113.409 86.9624 113.916L102.788 122.123L102.45 122.776L81.6581 111.996C83.2688 111.494 84.8804 110.991 86.493 110.489Z" fill="#0081A7"/>
<path d="M87.5929 111.215C87.1984 111.977 87.4955 112.914 88.2577 113.309L103.796 121.366C104.558 121.761 105.441 121.436 105.836 120.675L109.119 114.343C109.119 114.343 108.567 115.167 107.341 114.531L91.8021 106.473C91.4471 106.289 91.0554 106.256 90.6966 106.351C90.7253 106.477 90.7395 106.606 90.7286 106.729C90.8572 107.99 90.2667 109.312 88.689 109.803C88.5445 109.849 88.4004 109.894 88.2549 109.939L87.5929 111.215ZM95.274 109.297C95.7542 108.779 100.985 112.555 103.417 113.688C105.848 114.821 108.395 114.952 107.224 116.002C106.052 117.054 105.994 119.044 105.699 119.125C105.037 119.305 105.225 117.581 105.137 116.441C105.048 115.299 93.6477 111.045 95.274 109.297Z" fill="#0081A7"/>
<path d="M78.8916 112.858L101.524 124.594C101.937 124.808 102.444 124.647 102.657 124.233C102.873 123.82 102.71 123.312 102.299 123.098L81.1761 112.146C80.8559 112.246 80.5362 112.346 80.2151 112.445L80.676 112.684C80.7415 112.718 80.7674 112.799 80.7325 112.865C80.6996 112.931 80.6172 112.957 80.5517 112.923L80.071 112.674C80.0112 112.642 79.9863 112.572 80.0084 112.51C79.636 112.626 79.264 112.743 78.8916 112.858ZM102.1 123.944C102.135 123.878 102.215 123.853 102.282 123.887L102.521 124.012C102.587 124.046 102.613 124.127 102.579 124.193C102.545 124.259 102.463 124.285 102.397 124.25L102.158 124.127C102.092 124.091 102.067 124.01 102.1 123.944ZM101.14 123.446C101.174 123.38 101.256 123.355 101.323 123.389L101.802 123.638C101.868 123.672 101.894 123.753 101.859 123.82C101.826 123.886 101.744 123.911 101.677 123.877L101.198 123.628C101.132 123.594 101.106 123.512 101.14 123.446ZM100.18 122.949C100.215 122.882 100.296 122.857 100.362 122.892L100.842 123.141C100.908 123.175 100.933 123.256 100.9 123.322C100.865 123.388 100.785 123.414 100.717 123.379L100.237 123.13C100.172 123.096 100.146 123.015 100.18 122.949ZM99.219 122.451C99.2539 122.385 99.3349 122.359 99.4012 122.394L99.8805 122.642C99.9474 122.677 99.9733 122.757 99.9394 122.823C99.9055 122.889 99.8241 122.916 99.7567 122.881L99.2769 122.633C99.211 122.598 99.1847 122.516 99.219 122.451ZM98.26 121.952C98.2929 121.886 98.3748 121.861 98.4412 121.895L98.9205 122.144C98.9879 122.178 99.0133 122.26 98.978 122.326C98.9445 122.393 98.8631 122.418 98.7972 122.383L98.3165 122.135C98.251 122.1 98.2251 122.019 98.26 121.952ZM97.2981 121.455C97.3329 121.389 97.4144 121.363 97.4812 121.398L97.961 121.647C98.0269 121.681 98.0537 121.762 98.0184 121.829C97.9845 121.894 97.9021 121.92 97.8372 121.886L97.3565 121.637C97.2901 121.602 97.2651 121.521 97.2981 121.455ZM96.3381 120.957C96.3729 120.891 96.4543 120.865 96.5203 120.9L97.0005 121.149C97.0678 121.183 97.0933 121.264 97.0584 121.33C97.0245 121.396 96.9426 121.422 96.8767 121.387L96.396 121.138C96.3301 121.104 96.3051 121.022 96.3381 120.957ZM95.378 120.459C95.4124 120.393 95.4939 120.367 95.5602 120.401L96.04 120.65C96.1069 120.685 96.1318 120.766 96.0979 120.832C96.065 120.898 95.9826 120.925 95.9162 120.889L95.436 120.641C95.37 120.606 95.3441 120.525 95.378 120.459ZM94.418 119.961C94.4519 119.894 94.5329 119.869 94.5998 119.903L95.0805 120.152C95.1464 120.186 95.1713 120.268 95.1374 120.334C95.1035 120.4 95.0216 120.425 94.9557 120.392L94.4759 120.142C94.41 120.108 94.3846 120.027 94.418 119.961ZM93.4575 119.463C93.4914 119.397 93.5729 119.372 93.6393 119.405L94.1195 119.655C94.1864 119.689 94.2118 119.77 94.1779 119.836C94.1435 119.902 94.0621 119.928 93.9971 119.894L93.5145 119.645C93.4491 119.61 93.4236 119.529 93.4575 119.463ZM92.498 118.965C92.5319 118.899 92.6129 118.873 92.6788 118.908L93.1586 119.156C93.2254 119.191 93.2508 119.272 93.2169 119.338C93.1826 119.404 93.1011 119.43 93.0352 119.395L92.555 119.147C92.4886 119.113 92.4641 119.031 92.498 118.965ZM91.537 118.468C91.5709 118.401 91.6519 118.375 91.7183 118.409L92.2 118.658C92.2654 118.693 92.2899 118.773 92.2569 118.84C92.223 118.906 92.1402 118.932 92.0747 118.898L91.595 118.65C91.5286 118.615 91.5031 118.533 91.537 118.468ZM90.577 117.97C90.6109 117.903 90.6919 117.878 90.7583 117.912L91.2395 118.161C91.3045 118.195 91.3308 118.277 91.296 118.343C91.2611 118.408 91.1806 118.434 91.1147 118.4L90.6345 118.151C90.5676 118.117 90.5431 118.035 90.577 117.97ZM89.617 117.471C89.6509 117.405 89.7319 117.38 89.7973 117.414L90.2785 117.662C90.3444 117.697 90.3708 117.778 90.336 117.844C90.3021 117.91 90.2201 117.936 90.1538 117.902L89.6735 117.653C89.609 117.618 89.5831 117.537 89.617 117.471ZM88.6565 116.973C88.6914 116.907 88.7719 116.881 88.8383 116.916L89.3185 117.165C89.384 117.199 89.4113 117.28 89.3755 117.346C89.3425 117.412 89.2606 117.439 89.1942 117.404L88.7135 117.155C88.6476 117.121 88.6226 117.039 88.6565 116.973ZM87.696 116.475C87.7299 116.409 87.8114 116.384 87.8783 116.418L88.358 116.666C88.4239 116.7 88.4498 116.781 88.4155 116.848C88.382 116.914 88.2996 116.939 88.2337 116.906L87.7544 116.657C87.6876 116.623 87.6621 116.541 87.696 116.475ZM86.7356 115.978C86.7709 115.911 86.8509 115.886 86.9173 115.92L87.398 116.169C87.4639 116.203 87.4894 116.284 87.4545 116.351C87.4206 116.417 87.3392 116.443 87.2732 116.409L86.793 116.16C86.7271 116.125 86.7017 116.043 86.7356 115.978ZM85.7751 115.479C85.8099 115.413 85.8909 115.389 85.9573 115.422L86.4375 115.671C86.5049 115.705 86.5303 115.786 86.4945 115.853C86.4615 115.919 86.3801 115.945 86.3142 115.911L85.8335 115.662C85.7666 115.627 85.7416 115.545 85.7751 115.479ZM84.8146 114.982C84.8499 114.915 84.9299 114.89 84.9973 114.925L85.4775 115.173C85.5439 115.207 85.5693 115.289 85.5354 115.354C85.5015 115.421 85.4196 115.447 85.3532 115.412L84.873 115.163C84.8075 115.129 84.7816 115.048 84.8146 114.982ZM83.8551 114.483C83.889 114.417 83.9699 114.392 84.0373 114.426L84.5175 114.675C84.5829 114.709 84.6093 114.791 84.5754 114.857C84.5406 114.922 84.4591 114.948 84.3932 114.914L83.913 114.665C83.8466 114.631 83.8207 114.55 83.8551 114.483ZM82.8941 113.986C82.9289 113.92 83.0104 113.894 83.0763 113.929L83.5565 114.178C83.6229 114.212 83.6493 114.292 83.6145 114.359C83.5806 114.425 83.4986 114.451 83.4332 114.417L82.952 114.168C82.8856 114.133 82.8607 114.051 82.8941 113.986ZM81.9341 113.488C81.9685 113.421 82.0494 113.397 82.1163 113.431L82.5961 113.679C82.662 113.714 82.6874 113.794 82.6549 113.861C82.621 113.927 82.5386 113.953 82.4722 113.919L81.992 113.67C81.9261 113.635 81.8997 113.554 81.9341 113.488ZM80.9745 112.99C81.0084 112.923 81.0889 112.898 81.1553 112.932L81.636 113.181C81.7024 113.216 81.7279 113.297 81.6935 113.362C81.6596 113.429 81.5772 113.455 81.5113 113.42L81.0315 113.171C80.9656 113.138 80.9388 113.056 80.9745 112.99Z" fill="#0081A7"/>
</svg>
